<?xml version="1.0" encoding="UTF-8"?><svg id="Layer_2" xmlns="http://www.w3.org/2000/svg" viewBox="0 0 817.99 270.31"><defs><style>.cls-1{fill:#001738;stroke-width:0px;}</style></defs><g id="Layer_1-2"><path class="cls-1" d="m4.27,214.23c1.11-.24,1.98-.58,2.61-1.03s1.08-.99,1.34-1.62.4-1.34.4-2.13v-42.66c0-1.58-.58-2.82-1.74-3.71s-3.45-1.4-6.87-1.5v-.95h24.73c4.9,0,9.2.67,12.92,2.01,3.71,1.34,6.82,3.2,9.32,5.57,2.5,2.37,4.38,5.17,5.65,8.41,1.26,3.24,1.9,6.75,1.9,10.54s-.55,7.18-1.66,10.62c-1.11,3.45-2.83,6.49-5.17,9.12-2.34,2.63-5.33,4.75-8.97,6.36s-7.98,2.41-13.03,2.41H0v-1.03c1.74-.05,3.16-.2,4.27-.43Zm28.83-1.3c2.69-.84,4.83-2.28,6.44-4.31,1.61-2.03,2.77-4.74,3.48-8.14.71-3.4,1.07-7.62,1.07-12.68s-.43-9.32-1.3-12.64c-.87-3.32-2.16-5.95-3.87-7.9s-3.86-3.29-6.44-4.03-5.61-1.11-9.08-1.11h-5.53v52.06h5.29c3.95,0,7.27-.42,9.95-1.26Z"/><path class="cls-1" d="m64.68,214.23c1.11-.24,1.98-.58,2.61-1.03s1.08-.99,1.34-1.62.4-1.34.4-2.13v-42.66c0-1.58-.58-2.82-1.74-3.71s-3.45-1.4-6.87-1.5v-.95h45.82l.24,17.77-1.11.16c-1.16-2.79-2.28-5.23-3.36-7.31s-2.29-3.79-3.63-5.13c-1.34-1.34-2.86-2.34-4.54-3-1.69-.66-3.71-.99-6.08-.99h-9.48v24.25h4.27c1.63,0,3.08-.17,4.34-.51,1.26-.34,2.4-.92,3.4-1.74s1.86-1.92,2.57-3.32,1.33-3.15,1.86-5.25h1.03v23.15h-1.03c-.53-2.11-1.15-3.84-1.86-5.21s-1.57-2.48-2.57-3.32-2.13-1.43-3.4-1.78c-1.26-.34-2.71-.51-4.34-.51h-4.27v26.3h9.32c2.74,0,5.11-.34,7.11-1.03,2-.68,3.75-1.74,5.25-3.16s2.86-3.23,4.07-5.41,2.42-4.78,3.63-7.78l1.11.08-.4,18.8h-47.95v-1.03c1.74-.05,3.16-.2,4.27-.43Z"/><path class="cls-1" d="m121.64,197.37c1.16,2.63,2.4,5.04,3.71,7.23,1.32,2.19,2.74,4.07,4.27,5.65,1.53,1.58,3.19,2.8,4.98,3.67s3.74,1.3,5.85,1.3c1.95,0,3.65-.3,5.1-.91,1.45-.61,2.66-1.38,3.63-2.33.97-.95,1.7-2.03,2.17-3.24.47-1.21.71-2.45.71-3.71,0-1.74-.3-3.24-.91-4.5-.61-1.26-1.5-2.4-2.69-3.4-1.19-1-2.7-1.91-4.54-2.73s-3.98-1.65-6.4-2.49c-2-.68-3.96-1.4-5.89-2.13-1.92-.74-3.63-1.67-5.13-2.8-1.5-1.13-2.73-2.54-3.67-4.23-.95-1.69-1.42-3.79-1.42-6.32s.47-4.92,1.42-7.03c.95-2.11,2.25-3.88,3.91-5.33,1.66-1.45,3.62-2.57,5.88-3.36,2.26-.79,4.74-1.18,7.43-1.18,2.37,0,4.58.28,6.64.83,2.05.55,3.79,1.17,5.21,1.86l2.84-3.16h.95v17.62h-1.11c-2.21-5.27-4.6-9.19-7.15-11.77-2.55-2.58-5.44-3.87-8.65-3.87-1.37,0-2.67.21-3.91.63-1.24.42-2.33,1.05-3.28,1.9-.95.84-1.7,1.86-2.25,3.04-.55,1.19-.83,2.57-.83,4.15,0,1.69.32,3.13.95,4.34.63,1.21,1.55,2.29,2.77,3.24,1.21.95,2.7,1.79,4.46,2.53s3.78,1.47,6.04,2.21c1.9.63,3.77,1.32,5.61,2.05s3.5,1.69,4.98,2.84c1.47,1.16,2.67,2.58,3.59,4.27.92,1.69,1.38,3.82,1.38,6.4,0,2.16-.34,4.32-1.03,6.48s-1.78,4.11-3.28,5.85c-1.5,1.74-3.44,3.15-5.81,4.23-2.37,1.08-5.27,1.62-8.69,1.62-2.26,0-4.61-.34-7.03-1.03s-4.5-1.53-6.24-2.53l-4.74,3.87h-.95v-19.75h1.11Z"/><path class="cls-1" d="m170.68,214.23c1.16-.24,2.07-.58,2.73-1.03.66-.45,1.11-.99,1.34-1.62.24-.63.36-1.34.36-2.13v-42.66c0-.79-.12-1.5-.36-2.13-.24-.63-.68-1.16-1.34-1.58-.66-.42-1.57-.76-2.73-1.03-1.16-.26-2.63-.42-4.42-.47v-.95h26.86v.95c-1.79.05-3.27.21-4.42.47-1.16.26-2.07.61-2.73,1.03-.66.42-1.11.95-1.34,1.58-.24.63-.36,1.34-.36,2.13v42.66c0,.79.12,1.5.36,2.13.24.63.69,1.17,1.34,1.62s1.57.79,2.73,1.03c1.16.24,2.63.38,4.42.43v1.03h-26.86v-1.03c1.79-.05,3.27-.2,4.42-.43Z"/><path class="cls-1" d="m217.03,215.18c-3.45-1.24-6.5-3.07-9.16-5.49-2.66-2.42-4.78-5.42-6.36-9-1.58-3.58-2.37-7.72-2.37-12.4,0-4.32.8-8.25,2.41-11.81,1.61-3.55,3.74-6.61,6.4-9.16,2.66-2.55,5.71-4.53,9.16-5.92,3.45-1.4,7.04-2.09,10.78-2.09,3.11,0,5.81.3,8.1.91,2.29.61,4.36,1.38,6.2,2.33l3.55-3.71h.87v18.25h-1.11c-2.21-5.27-4.83-9.29-7.86-12.09-3.03-2.79-6.52-4.19-10.47-4.19-2.21,0-4.37.49-6.48,1.46-2.11.97-3.98,2.55-5.61,4.74-1.63,2.19-2.95,5.02-3.95,8.49-1,3.48-1.5,7.69-1.5,12.64s.53,9.16,1.58,12.64c1.05,3.48,2.44,6.31,4.15,8.49,1.71,2.19,3.65,3.78,5.81,4.78,2.16,1,4.37,1.5,6.64,1.5,4.53,0,8.11-1.11,10.74-3.32v-14.93c0-1.63-.61-2.95-1.82-3.95-1.21-1-3.53-1.55-6.95-1.66v-1.03h23.94v1.03c-2.48.11-4.12.55-4.94,1.34s-1.22,2.21-1.22,4.27v14.54c-2.69,1.69-5.81,2.98-9.36,3.87s-7.02,1.34-10.39,1.34c-3.74,0-7.33-.62-10.78-1.86Z"/><path class="cls-1" d="m269.43,169.56v32.94c0,1.95.14,3.62.43,5.02.29,1.4.82,2.58,1.58,3.55s1.8,1.75,3.12,2.33c1.32.58,2.98,1,4.98,1.26v1.03h-21.64v-1.03c1.84-.32,3.38-.76,4.62-1.34s2.23-1.34,2.96-2.29c.74-.95,1.26-2.12,1.58-3.51.32-1.4.47-3.07.47-5.02v-31.76c0-1.21-.18-2.36-.55-3.44-.37-1.08-.95-2.03-1.74-2.84-.79-.82-1.79-1.47-3-1.97-1.21-.5-2.66-.8-4.34-.91v-.95h16.83l31.36,41.71h.08v-28.6c0-1.95-.18-3.62-.55-5.02-.37-1.4-.96-2.58-1.78-3.56-.82-.97-1.91-1.75-3.28-2.33-1.37-.58-3.03-1-4.98-1.26v-.95h21.72v.95c-1.84.32-3.37.76-4.58,1.34s-2.16,1.34-2.84,2.29-1.16,2.12-1.42,3.52c-.26,1.4-.4,3.07-.4,5.02v43.13h-2.61l-35.94-47.32h-.08Z"/><path class="cls-1" d="m327.51,214.23c1.11-.24,1.98-.58,2.61-1.03s1.08-.99,1.34-1.62.4-1.34.4-2.13v-42.66c0-1.58-.58-2.82-1.74-3.71s-3.45-1.4-6.87-1.5v-.95h45.82l.24,17.77-1.11.16c-1.16-2.79-2.28-5.23-3.36-7.31s-2.29-3.79-3.63-5.13c-1.34-1.34-2.86-2.34-4.54-3-1.69-.66-3.71-.99-6.08-.99h-9.48v24.25h4.27c1.63,0,3.08-.17,4.34-.51,1.26-.34,2.4-.92,3.4-1.74s1.86-1.92,2.57-3.32,1.33-3.15,1.86-5.25h1.03v23.15h-1.03c-.53-2.11-1.15-3.84-1.86-5.21s-1.57-2.48-2.57-3.32-2.13-1.43-3.4-1.78c-1.26-.34-2.71-.51-4.34-.51h-4.27v26.3h9.32c2.74,0,5.11-.34,7.11-1.03,2-.68,3.75-1.74,5.25-3.16s2.86-3.23,4.07-5.41,2.42-4.78,3.63-7.78l1.11.08-.4,18.8h-47.95v-1.03c1.74-.05,3.16-.2,4.27-.43Z"/><path class="cls-1" d="m398.27,213.24c1.11.84,3.32,1.32,6.64,1.42v1.03h-26.15v-1.03c1.74-.05,3.16-.2,4.27-.43,1.11-.24,1.97-.58,2.61-1.03.63-.45,1.08-.99,1.34-1.62s.4-1.34.4-2.13v-42.66c0-1.58-.58-2.82-1.74-3.71s-3.45-1.4-6.87-1.5v-.95h24.88c4.06,0,7.5.34,10.35,1.03s5.16,1.63,6.95,2.84,3.09,2.63,3.91,4.27,1.22,3.37,1.22,5.21c0,3.42-1.28,6.37-3.83,8.85-2.55,2.48-6.86,4.16-12.92,5.06v.24c2.9.11,5.29.5,7.19,1.19,1.9.68,3.41,1.61,4.54,2.76,1.13,1.16,1.99,2.55,2.57,4.19.58,1.63,1,3.45,1.26,5.45l.55,4.5c.26,1.74.58,3.13.95,4.19.37,1.05.87,1.87,1.5,2.45.63.58,1.49.96,2.57,1.15s2.46.28,4.15.28v.95c-1.37.32-2.74.54-4.11.67-1.37.13-2.71.2-4.03.2-2.16,0-3.9-.18-5.21-.55-1.32-.37-2.37-.96-3.16-1.78s-1.36-1.86-1.7-3.12-.62-2.79-.83-4.58l-.79-7.27c-.21-2-.54-3.65-.99-4.94s-1.12-2.32-2.01-3.08c-.9-.76-2.08-1.29-3.55-1.58-1.47-.29-3.34-.43-5.61-.43h-6v20.7c0,1.68.55,2.95,1.66,3.79Zm11.41-26.82c1.66-.55,2.96-1.37,3.91-2.45.95-1.08,1.59-2.42,1.94-4.03s.51-3.46.51-5.57c0-1.9-.22-3.59-.67-5.09-.45-1.5-1.2-2.78-2.25-3.83-1.05-1.05-2.46-1.87-4.23-2.45s-3.99-.87-6.67-.87h-5.61v25.12h6.64c2.63,0,4.78-.28,6.44-.83Z"/><path class="cls-1" d="m478.54,213.21c1.37-.87,2.05-2.12,2.05-3.75v-47.32h-3.08c-2.95,0-5.7,1.32-8.25,3.95-2.55,2.63-5.1,6.56-7.62,11.77l-1.11-.08.47-17.14h48.42l.47,17.14-1.11.08c-2.48-5-5-8.87-7.58-11.61-2.58-2.74-5.37-4.11-8.37-4.11h-3.08v47.32c0,1.63.68,2.88,2.05,3.75s3.82,1.36,7.35,1.46v1.03h-27.96v-1.03c3.53-.1,5.98-.59,7.35-1.46Z"/><path class="cls-1" d="m530.29,212.65c-3.71-2.92-5.57-7.25-5.57-13v-32.86c0-1.58-.59-2.82-1.78-3.71-1.18-.9-3.46-1.4-6.83-1.5v-.95h25.83v.95c-1.69.05-3.04.2-4.07.43-1.03.24-1.83.58-2.41,1.03-.58.45-.97.97-1.19,1.58-.21.61-.32,1.33-.32,2.17v31.91c0,3,.42,5.5,1.26,7.5.84,2,1.99,3.61,3.44,4.82,1.45,1.21,3.15,2.07,5.1,2.57,1.95.5,4.03.75,6.24.75,2,0,3.88-.3,5.65-.91,1.76-.61,3.25-1.51,4.46-2.73,1.37-1.37,2.45-3.09,3.24-5.17.79-2.08,1.19-4.62,1.19-7.62v-24.17c0-1.95-.17-3.62-.51-5.02-.34-1.4-.94-2.58-1.78-3.56-.84-.97-1.94-1.75-3.28-2.33-1.34-.58-3.02-1-5.02-1.26v-.95h21.8v.95c-1.84.32-3.37.76-4.58,1.34-1.21.58-2.16,1.34-2.84,2.29-.69.95-1.16,2.12-1.42,3.52-.26,1.4-.4,3.07-.4,5.02v24.8c0,2.79-.4,5.32-1.19,7.58s-2.01,4.2-3.67,5.81c-1.66,1.61-3.77,2.86-6.32,3.75-2.55.9-5.6,1.34-9.12,1.34-6.9,0-12.2-1.46-15.92-4.38Z"/><path class="cls-1" d="m601.3,213.24c1.11.84,3.32,1.32,6.64,1.42v1.03h-26.15v-1.03c1.74-.05,3.16-.2,4.27-.43,1.11-.24,1.97-.58,2.61-1.03.63-.45,1.08-.99,1.34-1.62s.4-1.34.4-2.13v-42.66c0-1.58-.58-2.82-1.74-3.71s-3.45-1.4-6.87-1.5v-.95h24.88c4.06,0,7.5.34,10.35,1.03s5.16,1.63,6.95,2.84,3.09,2.63,3.91,4.27,1.22,3.37,1.22,5.21c0,3.42-1.28,6.37-3.83,8.85-2.55,2.48-6.86,4.16-12.92,5.06v.24c2.9.11,5.29.5,7.19,1.19,1.9.68,3.41,1.61,4.54,2.76,1.13,1.16,1.99,2.55,2.57,4.19.58,1.63,1,3.45,1.26,5.45l.55,4.5c.26,1.74.58,3.13.95,4.19.37,1.05.87,1.87,1.5,2.45.63.58,1.49.96,2.57,1.15s2.46.28,4.15.28v.95c-1.37.32-2.74.54-4.11.67-1.37.13-2.71.2-4.03.2-2.16,0-3.9-.18-5.21-.55-1.32-.37-2.37-.96-3.16-1.78s-1.36-1.86-1.7-3.12-.62-2.79-.83-4.58l-.79-7.27c-.21-2-.54-3.65-.99-4.94s-1.12-2.32-2.01-3.08c-.9-.76-2.08-1.29-3.55-1.58-1.47-.29-3.34-.43-5.61-.43h-6v20.7c0,1.68.55,2.95,1.66,3.79Zm11.41-26.82c1.66-.55,2.96-1.37,3.91-2.45.95-1.08,1.59-2.42,1.94-4.03s.51-3.46.51-5.57c0-1.9-.22-3.59-.67-5.09-.45-1.5-1.2-2.78-2.25-3.83-1.05-1.05-2.46-1.87-4.23-2.45s-3.99-.87-6.67-.87h-5.61v25.12h6.64c2.63,0,4.78-.28,6.44-.83Z"/><path class="cls-1" d="m681.45,168.22c.63-1.11.88-2.12.75-3.04-.13-.92-.67-1.68-1.62-2.29-.95-.61-2.45-1.04-4.5-1.3v-.95h21.72v.95c-1.69.32-3.21.75-4.58,1.3-1.37.55-2.75,1.3-4.15,2.25-1.4.95-2.88,2.12-4.46,3.52s-3.37,3.12-5.37,5.17l-8.06,7.9,16.83,23.38c1.32,1.79,2.44,3.25,3.36,4.38.92,1.13,1.8,2.05,2.65,2.76s1.74,1.24,2.69,1.58c.95.34,2.13.62,3.56.83v1.03h-24.65v-1.03c2.95-.26,4.67-.91,5.17-1.93.5-1.03-.09-2.75-1.78-5.17l-13.82-19.59-5.13,5.06v16.51c0,.84.09,1.58.28,2.21.18.63.55,1.15,1.11,1.54.55.39,1.33.71,2.33.95,1,.24,2.29.38,3.87.43v1.03h-25.44v-1.03c1.74-.05,3.16-.2,4.27-.43,1.11-.24,1.97-.57,2.61-.99.63-.42,1.08-.95,1.34-1.58.26-.63.4-1.34.4-2.13v-42.74c0-.79-.13-1.5-.4-2.13-.26-.63-.71-1.16-1.34-1.58-.63-.42-1.5-.76-2.61-1.03-1.11-.26-2.53-.42-4.27-.47v-.95h25.91v.95c-1.69.05-3.05.2-4.11.43-1.05.24-1.87.57-2.45.99-.58.42-.97.95-1.19,1.58-.21.63-.32,1.37-.32,2.21v23.94l18.72-19.04c1.16-1.21,2.05-2.37,2.69-3.48Z"/><path class="cls-1" d="m711.75,214.23c1.11-.24,1.98-.58,2.61-1.03s1.08-.99,1.34-1.62.4-1.34.4-2.13v-42.66c0-1.58-.58-2.82-1.74-3.71s-3.45-1.4-6.87-1.5v-.95h45.82l.24,17.77-1.11.16c-1.16-2.79-2.28-5.23-3.36-7.31s-2.29-3.79-3.63-5.13c-1.34-1.34-2.86-2.34-4.54-3-1.69-.66-3.71-.99-6.08-.99h-9.48v24.25h4.27c1.63,0,3.08-.17,4.34-.51,1.26-.34,2.4-.92,3.4-1.74s1.86-1.92,2.57-3.32,1.33-3.15,1.86-5.25h1.03v23.15h-1.03c-.53-2.11-1.15-3.84-1.86-5.21s-1.57-2.48-2.57-3.32-2.13-1.43-3.4-1.78c-1.26-.34-2.71-.51-4.34-.51h-4.27v26.3h9.32c2.74,0,5.11-.34,7.11-1.03,2-.68,3.75-1.74,5.25-3.16s2.86-3.23,4.07-5.41,2.42-4.78,3.63-7.78l1.11.08-.4,18.8h-47.95v-1.03c1.74-.05,3.16-.2,4.27-.43Z"/><path class="cls-1" d="m805.67,167.39c.37-1.08.42-2,.16-2.76s-.9-1.38-1.9-1.86c-1-.47-2.4-.87-4.19-1.18v-.95h18.25v.95c-1.32.26-2.5.59-3.56.99s-2.07,1-3.04,1.82c-.97.82-1.95,1.88-2.92,3.2-.97,1.32-2.04,2.97-3.2,4.98l-10.82,18.56v18.33c0,.79.12,1.5.36,2.13.24.63.68,1.17,1.34,1.62s1.57.79,2.73,1.03c1.16.24,2.63.38,4.42.43v1.03h-26.86v-1.03c1.79-.05,3.27-.2,4.42-.43,1.16-.24,2.07-.58,2.73-1.03s1.11-.99,1.34-1.62.36-1.34.36-2.13v-16.75l-13.9-24.57c-.58-1-1.16-1.87-1.74-2.61-.58-.74-1.21-1.36-1.9-1.86-.68-.5-1.46-.91-2.33-1.22-.87-.32-1.88-.61-3.04-.87v-.95h25.44v.95c-1.95.11-3.46.33-4.54.67-1.08.34-1.82.8-2.21,1.38s-.5,1.26-.32,2.05c.18.79.57,1.71,1.15,2.76l11.53,20.93,10.27-18.01c.95-1.58,1.61-2.91,1.98-3.99Z"/><path class="cls-1" d="m98.89,263.32l-2.81,6.37h-3.06l11.3-25.2h2.99l11.27,25.2h-3.13l-2.81-6.37h-13.75Zm6.84-15.55l-5.62,12.78h11.3l-5.69-12.78Z"/><path class="cls-1" d="m133.89,261.67c-.54.04-1.12.07-1.69.07h-6.69v7.96h-2.88v-25.2h9.57c6.3,0,9.94,3.1,9.94,8.46,0,4.18-2.02,6.98-5.65,8.17l5.9,8.57h-3.28l-5.22-8.03Zm-1.69-2.7c4.57,0,7.16-2.02,7.16-5.94s-2.59-5.76-7.16-5.76h-6.69v11.7h6.69Z"/><path class="cls-1" d="m168.6,248.1l-1.73,2.2c-1.94-1.98-4.68-3.17-7.45-3.17-5.69,0-10.26,4.39-10.26,9.93s4.57,9.94,10.26,9.94c2.77,0,5.47-1.15,7.45-3.02l1.76,1.98c-2.48,2.34-5.87,3.89-9.36,3.89-7.27,0-13.03-5.65-13.03-12.78s5.83-12.63,13.14-12.63c3.46,0,6.8,1.4,9.21,3.67Z"/><path class="cls-1" d="m191.75,269.69v-11.09h-15.19v11.09h-2.88v-25.2h2.88v11.38h15.19v-11.38h2.88v25.2h-2.88Z"/><path class="cls-1" d="m202.2,269.69v-25.2h2.88v25.2h-2.88Z"/><path class="cls-1" d="m220.25,247.27v22.42h-2.88v-22.42h-8.21v-2.77h19.33v2.77h-8.24Z"/><path class="cls-1" d="m235.47,247.27v8.28h12.71v2.77h-12.71v8.64h14.69v2.74h-17.57v-25.2h17.1v2.77h-14.22Z"/><path class="cls-1" d="m275.26,248.1l-1.73,2.2c-1.94-1.98-4.68-3.17-7.45-3.17-5.69,0-10.26,4.39-10.26,9.93s4.57,9.94,10.26,9.94c2.77,0,5.47-1.15,7.45-3.02l1.76,1.98c-2.48,2.34-5.87,3.89-9.36,3.89-7.27,0-13.03-5.65-13.03-12.78s5.83-12.63,13.14-12.63c3.46,0,6.8,1.4,9.21,3.67Z"/><path class="cls-1" d="m289.22,247.27v22.42h-2.88v-22.42h-8.21v-2.77h19.33v2.77h-8.24Z"/><path class="cls-1" d="m322.45,259.33c0,6.55-3.96,10.51-10.55,10.51s-10.62-3.96-10.62-10.51v-14.83h2.88v14.83c0,4.89,2.95,7.74,7.74,7.74s7.67-2.84,7.67-7.74v-14.83h2.88v14.83Z"/><path class="cls-1" d="m340.93,261.67c-.54.04-1.12.07-1.69.07h-6.69v7.96h-2.88v-25.2h9.57c6.3,0,9.94,3.1,9.94,8.46,0,4.18-2.02,6.98-5.65,8.17l5.9,8.57h-3.28l-5.22-8.03Zm-1.69-2.7c4.57,0,7.16-2.02,7.16-5.94s-2.59-5.76-7.16-5.76h-6.69v11.7h6.69Z"/><path class="cls-1" d="m358.4,247.27v8.28h12.71v2.77h-12.71v8.64h14.69v2.74h-17.57v-25.2h17.1v2.77h-14.22Z"/><path class="cls-1" d="m407.58,258.1c1.01-1.06,2.02-1.58,3.02-1.58.91,0,1.6.25,2.07.74s.7,1.12.7,1.89c0,.62-.2,1.16-.61,1.6-.41.44-.95.67-1.62.67-.58,0-1.07-.2-1.48-.59-.41-.4-.61-.87-.61-1.42,0-.34.07-.61.22-.83l-.11-.11c-1.37.62-2.66,2.15-3.89,4.57.53.94,1.02,1.72,1.48,2.36s.89,1.15,1.31,1.55c.42.4.84.68,1.26.85s.85.25,1.28.25c.34,0,.68-.07,1.04-.22.36-.14.82-.42,1.37-.83l.29.32c-.94.98-1.84,1.73-2.7,2.23s-1.73.76-2.59.76c-.6,0-1.13-.08-1.6-.23s-.9-.4-1.3-.74-.78-.76-1.15-1.28-.75-1.12-1.13-1.82c-.86,1.22-1.89,2.21-3.08,2.95s-2.61,1.12-4.27,1.12c-1.13,0-2.12-.17-2.97-.5-.85-.34-1.57-.79-2.14-1.35-.58-.56-1.01-1.22-1.31-1.98-.3-.76-.45-1.55-.45-2.39,0-1.7.59-3.11,1.76-4.21,1.18-1.1,2.8-2,4.86-2.7-.89-.94-1.6-1.82-2.12-2.66s-.79-1.79-.79-2.84c0-.86.15-1.66.45-2.39.3-.73.74-1.36,1.31-1.89.58-.53,1.28-.94,2.11-1.24.83-.3,1.77-.45,2.83-.45.91,0,1.73.13,2.47.38s1.35.59,1.85,1.01.89.91,1.15,1.48c.26.56.4,1.17.4,1.82,0,1.22-.43,2.29-1.3,3.19-.86.9-2.24,1.81-4.14,2.72,1.08.94,2.09,1.94,3.04,3.02.95,1.08,1.72,2.15,2.32,3.2.84-1.87,1.76-3.34,2.77-4.39Zm-14.27,1.91c-.52.89-.77,2-.77,3.35,0,1.51.47,2.71,1.42,3.58s2.15,1.31,3.62,1.31c1.01,0,1.9-.22,2.66-.65s1.51-1.08,2.23-1.94c-.36-.65-.8-1.33-1.31-2.03s-1.07-1.41-1.67-2.11-1.22-1.38-1.85-2.05c-.64-.67-1.28-1.28-1.93-1.84-1.08.7-1.88,1.49-2.39,2.38Zm6.91-5.51c.37-.41.67-.84.88-1.3.22-.46.37-.94.47-1.44.1-.5.14-1.07.14-1.69,0-1.22-.26-2.17-.77-2.84-.52-.67-1.28-1.01-2.29-1.01-.94,0-1.7.34-2.29,1.01s-.88,1.55-.88,2.63c0,.98.29,1.94.86,2.86.58.92,1.4,1.94,2.48,3.04.55-.43,1.01-.85,1.39-1.26Z"/><path class="cls-1" d="m449.73,248.1l-1.73,2.2c-1.94-1.98-4.68-3.17-7.45-3.17-5.69,0-10.26,4.39-10.26,9.93s4.57,9.94,10.26,9.94c2.77,0,5.47-1.15,7.45-3.02l1.76,1.98c-2.48,2.34-5.87,3.89-9.36,3.89-7.27,0-13.03-5.65-13.03-12.78s5.83-12.63,13.14-12.63c3.46,0,6.8,1.4,9.21,3.67Z"/><path class="cls-1" d="m478.71,257.09c0,7.09-5.83,12.74-13.17,12.74s-13.21-5.65-13.21-12.74,5.83-12.67,13.21-12.67,13.17,5.58,13.17,12.67Zm-23.47,0c0,5.54,4.68,9.97,10.29,9.97s10.22-4.43,10.22-9.97-4.61-9.93-10.22-9.93-10.29,4.39-10.29,9.93Z"/><path class="cls-1" d="m502.26,269.69l-15.12-20.23v20.23h-2.88v-25.2h2.99l15.12,20.27v-20.27h2.84v25.2h-2.95Z"/><path class="cls-1" d="m528.51,246.73l-1.22,2.7c-2.27-1.51-4.93-2.12-6.95-2.12-3.24,0-5.36,1.22-5.36,3.35,0,6.48,14.18,3.1,14.15,12.24,0,4.21-3.71,6.91-9.11,6.91-3.67,0-7.27-1.58-9.65-3.85l1.3-2.59c2.34,2.27,5.54,3.56,8.39,3.56,3.64,0,5.9-1.48,5.9-3.89.04-6.62-14.15-3.1-14.15-12.13,0-3.96,3.49-6.51,8.71-6.51,2.92,0,5.9.94,7.99,2.34Z"/><path class="cls-1" d="m543.18,247.27v22.42h-2.88v-22.42h-8.21v-2.77h19.33v2.77h-8.24Z"/><path class="cls-1" d="m566.79,261.67c-.54.04-1.12.07-1.69.07h-6.69v7.96h-2.88v-25.2h9.57c6.3,0,9.94,3.1,9.94,8.46,0,4.18-2.02,6.98-5.65,8.17l5.9,8.57h-3.28l-5.22-8.03Zm-1.69-2.7c4.57,0,7.16-2.02,7.16-5.94s-2.59-5.76-7.16-5.76h-6.69v11.7h6.69Z"/><path class="cls-1" d="m602.02,259.33c0,6.55-3.96,10.51-10.55,10.51s-10.62-3.96-10.62-10.51v-14.83h2.88v14.83c0,4.89,2.95,7.74,7.74,7.74s7.67-2.84,7.67-7.74v-14.83h2.88v14.83Z"/><path class="cls-1" d="m629.46,248.1l-1.73,2.2c-1.94-1.98-4.68-3.17-7.45-3.17-5.69,0-10.26,4.39-10.26,9.93s4.57,9.94,10.26,9.94c2.77,0,5.47-1.15,7.45-3.02l1.76,1.98c-2.48,2.34-5.87,3.89-9.36,3.89-7.27,0-13.03-5.65-13.03-12.78s5.83-12.63,13.14-12.63c3.46,0,6.8,1.4,9.21,3.67Z"/><path class="cls-1" d="m643.42,247.27v22.42h-2.88v-22.42h-8.21v-2.77h19.33v2.77h-8.24Z"/><path class="cls-1" d="m655.76,269.69v-25.2h2.88v25.2h-2.88Z"/><path class="cls-1" d="m690.56,257.09c0,7.09-5.83,12.74-13.17,12.74s-13.21-5.65-13.21-12.74,5.83-12.67,13.21-12.67,13.17,5.58,13.17,12.67Zm-23.47,0c0,5.54,4.68,9.97,10.29,9.97s10.22-4.43,10.22-9.97-4.61-9.93-10.22-9.93-10.29,4.39-10.29,9.93Z"/><path class="cls-1" d="m714.11,269.69l-15.12-20.23v20.23h-2.88v-25.2h2.99l15.12,20.27v-20.27h2.84v25.2h-2.95Z"/><path class="cls-1" d="m563.68,26.38l-.14-22.95-.02-3.43-3.35.5L254.44,45.71l-.5.07v.5s.28,30.61.28,30.61h.61l.27-30.1L557.59,6.81l-.12,19.57-.06,22.95c.07,14.45.05,28.89.26,43.34-19.5,2.22-39.02,4.27-58.5,6.72-20.36,2.43-40.72,4.98-61.05,7.78l.06.61c20.48-1.28,40.93-2.81,61.38-4.46,20.46-1.52,40.87-3.48,61.3-5.22l2.55-.22.04-2.65c.25-15.3.22-30.61.29-45.91l-.06-22.95Z"/></g></svg>