<?xml version="1.0" encoding="UTF-8"?><svg id="Layer_2" xmlns="http://www.w3.org/2000/svg" viewBox="0 0 1560.4 293.19"><defs><style>.cls-1{fill:#f8f3ea;}.cls-1,.cls-2,.cls-3{stroke-width:0px;}.cls-2{fill:#2d2c2c;}.cls-3{fill:#e92427;}</style></defs><g id="Layer_1-2"><polygon class="cls-3" points="306.13 47.88 306.13 293.19 0 293.19 0 72.69 306.13 47.88"/><polygon class="cls-1" points="48.22 247.74 77.74 247.74 77.74 199.14 134.26 199.14 134.26 174.66 77.74 174.66 77.74 145.5 142.54 145.5 142.54 121.74 48.22 121.74 48.22 247.74"/><polygon class="cls-1" points="157.2 121.74 157.2 146.58 195.71 146.58 195.71 247.74 225.23 247.74 225.23 146.58 263.75 146.58 263.75 121.74 157.2 121.74"/><polygon class="cls-3" points="0 24.79 0 48.27 306.13 23.48 306.13 0 0 24.79"/><path class="cls-2" d="m354.35,121.96h94.32v23.76h-64.8v29.16h33.03v24.48h-33.03v48.6h-29.52v-126Z"/><path class="cls-2" d="m497.4,232.84c-6.66,11.88-18.54,17.64-31.68,17.64-24.12,0-34.38-14.58-34.38-35.1v-56.88h28.44v49.14c0,13.32,5.04,19.62,15.84,19.62s18.72-7.92,18.9-23.04v-45.72h28.26v89.46h-23.22l-2.16-15.12Z"/><path class="cls-2" d="m558.16,158.5l2.34,16.2c6.84-12.06,18.72-18.54,33.12-18.54,23.22,0,33.3,14.22,33.3,35.64v56.16h-28.44v-46.62c0-15.48-5.4-20.52-15.84-20.52-11.52,0-19.44,7.74-19.62,23.22v43.92h-28.44v-89.46h23.58Z"/><path class="cls-2" d="m705.15,234.1c-5.94,10.62-16.38,16.38-30.6,16.38-23.04,0-37.8-15.84-37.8-46.26s15.66-48.06,39.42-48.06c11.7,0,20.52,4.32,26.28,12.24v-46.44h28.44v126h-24.3l-1.44-13.86Zm-22.32-56.88c-12.06,0-18.54,7.74-18.54,26.28,0,17.46,6.12,25.74,18.72,25.74,11.52,0,19.8-8.1,19.8-25.92,0-18.72-8.46-26.1-19.98-26.1Z"/><path class="cls-2" d="m757.14,117.46c10.44,0,16.38,4.5,16.38,14.76s-5.94,14.58-16.38,14.58-16.38-4.68-16.38-14.58,5.94-14.76,16.38-14.76Zm14.22,41.04v89.46h-28.44v-89.46h28.44Z"/><path class="cls-2" d="m806,158.5l2.34,16.2c6.84-12.06,18.72-18.54,33.12-18.54,23.22,0,33.3,14.22,33.3,35.64v56.16h-28.44v-46.62c0-15.48-5.4-20.52-15.84-20.52-11.52,0-19.44,7.74-19.62,23.22v43.92h-28.44v-89.46h23.58Z"/><path class="cls-2" d="m977.83,244.36c0,29.7-21.06,43.38-50.22,43.38-17.64,0-33.66-5.22-40.86-19.62l16.02-13.86c5.4,9.54,13.68,13.14,23.76,13.14,14.22,0,23.04-7.02,23.04-22.68v-12.78c-5.58,9.9-14.76,14.94-28.08,14.94-22.5,0-37.44-14.94-37.44-45s15.3-45.72,39.06-45.72c13.32,0,23.58,5.04,29.34,15.3l2.34-12.96h23.04v85.86Zm-47.88-67.32c-12.24,0-18.72,7.92-18.72,24.48s6.48,24.66,18.72,24.66,19.8-8.1,19.8-24.84-8.28-24.3-19.8-24.3Z"/><path class="cls-2" d="m1219.32,158.5h23.58l2.34,17.82c6.12-13.14,17.82-20.52,32.04-20.16l.18,27c-19.98-1.62-29.52,10.08-29.7,29.34v35.46h-28.44v-89.46Z"/><path class="cls-2" d="m1287.29,121.96h28.26l-.72,77.4,33.12-40.86h30.78l-34.02,39.78,34.38,49.68h-31.32l-21.42-31.32-10.98,12.06v19.26h-28.08v-126Z"/><path class="cls-2" d="m1374.62,203.86c0-30.06,16.56-47.7,45.72-47.7s42.12,19.8,42.12,45.18c0,3.06-.18,6.12-.72,9.72h-60.12c1.26,14.22,8.64,19.98,21.6,19.98,9.72,0,16.2-2.88,20.7-11.34l17.1,10.44c-7.38,13.86-21.42,20.34-39.96,20.34-28.44,0-46.44-14.94-46.44-46.62Zm27-9.18h34.74c-.72-12.6-6.3-18.72-16.56-18.72s-17.1,5.94-18.18,18.72Z"/><path class="cls-2" d="m1496.14,248.32l-35.28-89.82h29.34l20.88,59.58,20.16-59.58h29.16l-41.58,106.02c-7.02,17.64-20.16,23.04-36.9,23.04-7.74,0-13.14-1.08-19.26-3.42l2.88-20.34c4.68,1.98,8.64,2.88,12.96,2.88,6.3,0,12.24-2.52,15.3-11.34l2.34-7.02Z"/><path class="cls-2" d="m1133.4,121.96v24.84h-38.52v101.16h-29.52v-101.16h-38.52v-24.84h106.56Z"/><path class="cls-2" d="m1182.13,232.84c-6.66,11.88-18.54,17.64-31.68,17.64-24.12,0-34.38-14.58-34.38-35.1v-56.88h28.44v49.14c0,13.32,5.04,19.62,15.84,19.62s18.72-7.92,18.9-23.04v-45.72h28.26v89.46h-23.22l-2.16-15.12Z"/></g></svg>