<svg xmlns="http://www.w3.org/2000/svg" width="331.24" height="126.554" viewBox="0 0 331.24 126.554"><g transform="translate(0.5 0.5)"><path d="M52.1,101.784V69.829h14.01v31.955c0,7.475,4.8,12.044,11.493,12.044,6.611,0,11.1-4.569,11.1-12.044V69.829h13.932v31.955c0,14.562-9.68,23.77-25.107,23.77C62.013,125.554,52.1,116.346,52.1,101.784ZM16.45,124.925V81.086H0V69.751H47.068V81.086H30.46v43.84Zm189.114,0L191,103.28l-7.321,8.105v13.539H169.675V69.83h14.006V93.68L204.774,69.83H220.99L200.523,92.657l21.8,32.268Zm90.42,0V107.53L275.6,69.829H289.61l13.3,24.008,12.983-24.008H329.9l-19.991,37.309v17.786Zm-67.525,0v-55.1h43.13V80.849h-29.12V91.791h26.288v11.016H242.469v11.1h29.988v11.021Zm-82.548,0-8.189-15.5H126.7v15.5H112.694V69.833h24.639c14.557,0,22.9,6.924,22.9,19.2,0,8.423-3.536,14.483-9.993,17.711L161.8,124.923ZM126.7,98.4h10.628c6.055,0,9.6-3.07,9.6-8.9,0-5.742-3.541-8.657-9.6-8.657H126.7Zm55.244-60.15c0-12.595,8.106-21.172,19.911-21.172,6.769,0,11.806,2.757,14.875,7.633V.943h9.054v58.4h-9.054V52.18c-2.99,4.882-8.026,7.559-14.716,7.559C189.975,59.738,181.949,51,181.949,38.252Zm9.05.314c.079,7.952,5.274,13.614,12.908,13.614,7.555,0,12.829-5.663,12.829-13.614,0-8.106-5.274-13.772-12.829-13.772S191.078,30.539,191,38.565Zm42.654-.079c0-12.675,8.736-21.252,21.173-21.331,14.716,0,20.7,9.6,19.6,24.714H242.781a12.751,12.751,0,0,0,12.987,10.47,16.28,16.28,0,0,0,11.806-4.883l4.8,5.116c-4.093,4.485-10.077,7.082-17.318,7.082C242.15,59.654,233.652,51.077,233.652,38.486Zm8.975-3.228h23.924c-.314-6.769-4.8-10.862-11.647-10.862C248.293,24.4,243.65,28.568,242.627,35.258ZM125.447,53.833l3.224-6.456a22.818,22.818,0,0,0,14.011,5.2c3.859,0,6.849-1.337,6.849-4.485,0-8.578-22.038-3.78-21.958-18.889,0-8.5,7.395-12.123,15.422-12.123a26.469,26.469,0,0,1,14.641,4.251l-3.307,6.69a24.575,24.575,0,0,0-12.039-3.7c-3.542,0-6.139,1.182-6.139,4.172,0,7.713,22.271,3.541,22.2,18.734,0,8.577-7.638,12.432-16.057,12.432C136.15,59.654,129.619,57.608,125.447,53.833ZM59.023,59.346V4.25h9.287v55.1Zm106.476,0V17.473h8.97V59.341Zm-54.218,0V35.809c0-6.3-3.779-10.152-10.077-10.152-6.924.08-11.254,4.878-11.885,11.413v22.27h-9.05V17.473h9.05V25.5c2.994-5.821,8.344-8.343,15.426-8.343,9.76,0,15.586,6.138,15.586,16.136v26.05ZM164.714,5.508a5.277,5.277,0,1,1,10.545,0,5.275,5.275,0,1,1-10.545,0Z" fill="#fff" stroke="rgba(0,0,0,0)" stroke-miterlimit="10" stroke-width="1"/></g></svg>