<svg xmlns="http://www.w3.org/2000/svg" width="67" height="67" viewBox="0 0 67 67"><path d="M427.706.232A24.531,24.531,0,0,0,419.58,1.8a16.385,16.385,0,0,0-5.927,3.874,16.423,16.423,0,0,0-3.853,5.94,24.6,24.6,0,0,0-1.541,8.136c-.156,3.573-.192,4.713-.175,13.809s.058,10.238.228,13.812a24.541,24.541,0,0,0,1.573,8.126A17.125,17.125,0,0,0,419.7,65.28a24.6,24.6,0,0,0,8.133,1.542c3.573.157,4.714.192,13.809.174s10.239-.057,13.812-.227a24.628,24.628,0,0,0,8.127-1.572,17.118,17.118,0,0,0,9.777-9.817,24.517,24.517,0,0,0,1.541-8.131c.157-3.575.194-4.717.176-13.813s-.058-10.236-.228-13.808a24.579,24.579,0,0,0-1.572-8.129A16.446,16.446,0,0,0,469.4,5.573a16.373,16.373,0,0,0-5.942-3.851A24.5,24.5,0,0,0,455.327.18C451.754.022,450.613-.013,441.516,0s-10.237.057-13.81.228m.391,60.56a18.568,18.568,0,0,1-6.222-1.14,11.089,11.089,0,0,1-6.37-6.345,18.552,18.552,0,0,1-1.165-6.219c-.166-3.531-.2-4.591-.22-13.536s.015-10,.169-13.536a18.533,18.533,0,0,1,1.14-6.22,10.4,10.4,0,0,1,2.5-3.858,10.392,10.392,0,0,1,3.847-2.513,18.551,18.551,0,0,1,6.218-1.164c3.533-.167,4.591-.2,13.533-.221s10.005.015,13.539.17a18.506,18.506,0,0,1,6.219,1.139,10.384,10.384,0,0,1,3.858,2.5,10.375,10.375,0,0,1,2.513,3.849,18.464,18.464,0,0,1,1.164,6.215c.168,3.533.206,4.592.222,13.535s-.015,10-.17,13.536a18.562,18.562,0,0,1-1.14,6.224,11.087,11.087,0,0,1-6.347,6.369,18.522,18.522,0,0,1-6.215,1.165c-3.533.166-4.591.2-13.537.22s-10-.016-13.535-.169m27.31-45.2a4.02,4.02,0,1,0,4.011-4.027,4.02,4.02,0,0,0-4.011,4.027m-31.028,17.94A17.2,17.2,0,1,0,441.546,16.3a17.2,17.2,0,0,0-17.167,17.234m6.034-.012A11.167,11.167,0,1,1,441.6,44.666a11.167,11.167,0,0,1-11.187-11.145" transform="translate(-408.08 0)" fill="#728086"/></svg>