<svg xmlns="http://www.w3.org/2000/svg" width="67" height="67" viewBox="0 0 67 67"><path d="M159.206,67H111.593a9.694,9.694,0,0,1-9.693-9.694V9.693A9.693,9.693,0,0,1,111.593,0h47.613A9.694,9.694,0,0,1,168.9,9.693V57.306A9.694,9.694,0,0,1,159.206,67M122,57.033H111.365V25.045H122ZM116.681,20.68h-.069a5.506,5.506,0,0,1-5.875-5.528c0-3.138,2.377-5.527,6.015-5.527s5.875,2.389,5.944,5.527c0,3.069-2.308,5.528-6.015,5.528m10.152,36.353h10.632V39.17a7.274,7.274,0,0,1,.35-2.594,5.82,5.82,0,0,1,5.455-3.889c3.848,0,5.386,2.934,5.386,7.233V57.033h10.631V38.692c0-9.825-5.245-14.4-12.24-14.4a10.587,10.587,0,0,0-9.652,5.39h.07v-4.64H126.833c.14,3,0,31.988,0,31.988" transform="translate(-101.9)" fill="#728086" fill-rule="evenodd"/></svg>