<svg xmlns="http://www.w3.org/2000/svg" width="331.174" height="125.442" viewBox="0 0 331.174 125.442"><g transform="translate(0.5 0.5)"><path d="M53.61,100.474V68.254H67.735v32.22c0,7.541,4.842,12.141,11.585,12.141,6.668,0,11.193-4.6,11.193-12.141V68.254h14.045v32.22c0,14.681-9.759,23.968-25.317,23.968C63.608,124.442,53.61,115.155,53.61,100.474Zm90.67,23.334-8.256-15.638H124.915v15.638H110.786V68.25h19.625V13.491h7.3v6.668c3.409-4.684,8.807-7.065,15-7.065,12.3,0,21.27,8.573,21.27,21.428,0,12.934-8.97,21.508-21.27,21.508a17.953,17.953,0,0,1-14.68-6.827V68.315c13.193.733,20.692,7.612,20.692,19.3,0,8.494-3.572,14.606-10.082,17.86l11.669,18.333ZM124.915,97.061h10.712c6.112,0,9.68-3.1,9.68-8.97,0-5.79-3.568-8.728-9.68-8.728H124.915Zm13.036-62.539c0,8.97,6.108,14.84,14.126,14.84,8.092,0,14.2-5.87,14.2-14.84,0-8.891-6.113-14.76-14.2-14.76C144.059,19.762,137.952,25.631,137.952,34.522Zm85.277,89.284V68.253h43.487V79.361H237.354V90.391h26.509V101.5H237.354v11.188h30.235v11.114Zm66.815,0V106.266L269.488,68.252h14.126l13.411,24.206,13.1-24.206h14.125L304.09,105.87v17.935Zm-87.451,0L187.912,101.98l-7.382,8.176v13.649H166.4V68.252H180.53V92.3L201.8,68.252h16.348l-20.63,23.017L219.5,123.805Zm-186.007,0V79.6H0V68.173H47.456V79.6H30.712v44.206ZM283.717,67.536l3.255-5.716a10.767,10.767,0,0,0,7.542,3.1c3.651,0,5.953-1.667,8.012-6.505l1.35-2.937L285.3,13.491h7.939l14.681,33.649,14.522-33.649h7.462l-20.4,46.271c-3.731,8.885-8.569,11.664-15,11.664C290.464,71.425,286.336,70.076,283.717,67.536Zm-22-24.679v-23.1h-7.14V13.491h7.14v-9.2h7.62v9.2H281.4v6.271H269.34V42.539c0,4.521,2.382,7.061,6.585,7.061a9.6,9.6,0,0,0,5.953-1.985l2.381,5.478a14.377,14.377,0,0,1-9.208,2.937C266.562,56.03,261.719,51.346,261.719,42.857Zm-82.9-8.336c0-12.462,8.971-21.428,21.111-21.428s20.793,8.727,20.793,21.667c0,.635-.079,1.588-.159,2.3H186.44c.952,7.378,6.906,12.3,15.237,12.3a15.709,15.709,0,0,0,12.146-5.08l4.2,4.922c-3.806,4.445-9.6,6.827-16.587,6.827C187.869,56.03,178.819,47.059,178.819,34.522Zm7.62-2.937h26.986a13.578,13.578,0,0,0-26.986,0ZM78.777,34.522c0-12.537,9.283-21.428,21.9-21.428s21.825,8.891,21.825,21.428S113.3,56.03,100.682,56.03,78.777,47.059,78.777,34.522Zm7.7,0c0,8.97,6.112,14.84,14.209,14.84s14.126-5.87,14.126-14.84-6.033-14.76-14.126-14.76S86.473,25.552,86.473,34.522ZM228.459,55.553V13.491h7.3v7.065c2.7-4.922,7.933-7.462,15.316-7.462v7.382a13.512,13.512,0,0,0-1.746-.079c-8.172,0-13.252,5-13.252,14.2V55.553Zm-174.545,0V13.491h7.3v7.065c2.7-4.922,7.933-7.462,15.316-7.462v7.382a13.516,13.516,0,0,0-1.747-.079c-8.172,0-13.251,5-13.251,14.2V55.553Zm-52.119,0V0H23.462C37.905,0,46.638,7.3,46.638,19.365S37.905,38.729,23.462,38.729H9.734V55.553Zm7.939-23.73h13.49c10.157,0,15.475-4.52,15.475-12.458S33.381,6.906,23.224,6.906H9.734Z" fill="#fff" stroke="rgba(0,0,0,0)" stroke-miterlimit="10" stroke-width="1"/></g></svg>