<svg xmlns="http://www.w3.org/2000/svg" xmlns:xlink="http://www.w3.org/1999/xlink" width="367.034" height="136.23" viewBox="0 0 367.034 136.23"><defs><clipPath id="a"><rect width="367.034" height="136.23" fill="#fff"/></clipPath></defs><g transform="translate(4.862 64.052)"><g transform="translate(-4.862 -64.052)"><g clip-path="url(#a)"><path d="M53.085,8.744c0,5.448-3.942,8.745-10.465,8.745h-6.2v7.6H32.837V0H42.62c6.523,0,10.465,3.3,10.465,8.743m-3.584,0c0-3.583-2.4-5.626-6.988-5.626H36.42V14.371h6.093c4.587,0,6.988-2.042,6.988-5.627" fill="#fff"/><path d="M66.584,5.913V9.246A6.05,6.05,0,0,0,65.8,9.21c-3.692,0-5.985,2.258-5.985,6.415v9.461H56.37V6.092h3.3v3.19c1.219-2.222,3.584-3.369,6.917-3.369" fill="#fff"/><path d="M67.6,15.589c0-5.662,4.193-9.676,9.891-9.676s9.855,4.014,9.855,9.676A9.451,9.451,0,0,1,77.489,25.3,9.48,9.48,0,0,1,67.6,15.589m16.27,0c0-4.05-2.724-6.666-6.379-6.666s-6.415,2.616-6.415,6.666,2.76,6.7,6.415,6.7,6.379-2.652,6.379-6.7" fill="#fff"/><path d="M110.588,15.589c0,5.841-4.05,9.712-9.6,9.712a8.11,8.11,0,0,1-6.629-3.082v9.819H90.913V6.092h3.3V9.1a8.086,8.086,0,0,1,6.772-3.19,9.219,9.219,0,0,1,9.6,9.676m-3.476,0A6.279,6.279,0,0,0,100.7,8.923c-3.62,0-6.38,2.652-6.38,6.666,0,4.05,2.76,6.7,6.38,6.7,3.656,0,6.415-2.652,6.415-6.7" fill="#fff"/><path d="M131.624,16.736h-15.41c.43,3.333,3.118,5.554,6.881,5.554A7.092,7.092,0,0,0,128.578,20l1.9,2.222a9.533,9.533,0,0,1-7.49,3.082c-6.128,0-10.213-4.05-10.213-9.712a9.3,9.3,0,0,1,9.532-9.676c5.483,0,9.39,3.942,9.39,9.783,0,.287-.036.717-.072,1.04m-15.41-2.473H128.4a6.131,6.131,0,0,0-12.185,0" fill="#fff"/><path d="M145.4,5.913V9.246a6.05,6.05,0,0,0-.788-.036c-3.692,0-5.985,2.258-5.985,6.415v9.461h-3.441V6.092h3.3v3.19c1.219-2.222,3.584-3.369,6.917-3.369" fill="#fff"/><path d="M160.386,23.975a6.489,6.489,0,0,1-4.157,1.326c-3.835,0-6.021-2.114-6.021-5.949V8.923h-3.225V6.092h3.225V1.935h3.441V6.092H159.1V8.923h-5.447V19.209c0,2.042,1.075,3.189,2.974,3.189a4.329,4.329,0,0,0,2.688-.9Z" fill="#fff"/><path d="M181,6.092l-9.21,20.894c-1.684,4.014-3.871,5.268-6.773,5.268a7.129,7.129,0,0,1-4.874-1.756l1.469-2.58a4.864,4.864,0,0,0,3.405,1.4c1.648,0,2.687-.751,3.619-2.937l.609-1.327L160.859,6.092h3.583l6.63,15.2,6.558-15.2Z" fill="#fff"/><path d="M201.648,5.161V25.122h-6.379V5.161h-7.49V0H209.21V5.161Z" fill="#fff"/><path d="M234.995,14.586c0,6.63-4.408,10.823-11.432,10.823-7.06,0-11.575-4.193-11.575-10.823V.036h6.379v14.55c0,3.4,2.186,5.483,5.232,5.483,3.01,0,5.053-2.078,5.053-5.483V.036h6.343Z" fill="#fff"/><path d="M249.2,18.062h-5.017v7.06h-6.379V.036h11.217c6.63,0,10.429,3.154,10.429,8.744,0,3.835-1.613,6.594-4.552,8.064l5.268,8.278H252.93Zm-.179-5.017c2.759,0,4.372-1.4,4.372-4.05,0-2.616-1.613-3.942-4.372-3.942h-4.838v7.992Z" fill="#fff"/><path d="M272.633,15.267,269.3,18.958v6.164h-6.379V.036H269.3V10.895L278.9.036h7.383l-9.318,10.393L286.9,25.122h-7.633Z" fill="#fff"/><path d="M294.959,5.053v4.981h11.97v5.018h-11.97v5.053h13.654v5.017H288.58V.036h19.639V5.053Z" fill="#fff"/><path d="M325.095,25.122h-6.343V17.2L309.47.036h6.379l6.057,10.93L327.819.036H334.2l-9.1,16.987Z" fill="#fff"/><path d="M8.353,73.717l.385,18.53H0v-33.6H10.37l9.552,22.562,9.457-22.562H40.036v33.6H30.963L31.395,72.9,23.138,92.247h-6.72Z" fill="#fff"/><path d="M66.6,87.735H54.889l-1.345,4.512h-9.6l11.185-33.6H66.7l11.186,33.6h-9.89Zm-9.6-7.2h7.488L60.745,68.149Z" fill="#fff"/><path d="M90.625,73.91l.24,18.337H81.744v-33.6h7.2l15.217,19.922-.192-19.922h9.121v33.6h-8.16Z" fill="#fff"/><path d="M139.611,87.735H127.9l-1.345,4.512h-9.6l11.186-33.6h11.568l11.186,33.6H141Zm-9.6-7.2H137.5l-3.744-12.385Z" fill="#fff"/><path d="M151.9,75.4c0-12,5.665-17.473,17.042-17.473,6.864,0,11.377,2.256,13.537,7.632l-7.776,3.937c-1.345-2.737-2.833-3.6-5.858-3.6-4.7,0-7.2,2.353-7.2,9.6,0,7.441,2.641,9.793,7.393,9.793,2.832,0,5.424-1.392,5.856-4.7h-5.856V73.478h14.545v18.77h-6.577l-.576-3.793c-1.727,2.784-4.848,4.513-9.264,4.513-9.361,0-15.266-5.713-15.266-17.57" fill="#fff"/><path d="M189.561,58.644h26.547v7.441h-17.09v5.424h14.689v7.537H199.018v5.712h17.569v7.489H189.561Z" fill="#fff"/><path d="M230.621,73.717l.385,18.53h-8.738v-33.6h10.37l9.552,22.562,9.457-22.562H262.3v33.6h-9.073l.432-19.346-8.257,19.346h-6.72Z" fill="#fff"/><path d="M269.414,58.644h26.547v7.441h-17.09v5.424H293.56v7.537H278.871v5.712H296.44v7.489H269.414Z" fill="#fff"/><path d="M311,73.91l.24,18.337h-9.121v-33.6h7.2L324.54,78.566l-.192-19.922h9.121v33.6h-8.16Z" fill="#fff"/><path d="M367.034,58.644v8.161H357.1V92.247h-9.648V66.805h-9.937V58.644Z" fill="#fff"/><path d="M107.187,127.541v7.969H81.12v-33.6h9.745v25.634Z" fill="#fff"/><path d="M112.432,101.907h26.547v7.441h-17.09v5.424h14.689v7.537H121.889v5.712h17.569v7.489H112.432Z" fill="#fff"/><path d="M173.387,101.907v8.161H163.45V135.51H153.8V110.068h-9.937v-8.161Z" fill="#fff"/><path d="M207.869,101.907v8.161h-9.937V135.51h-9.648V110.068h-9.937v-8.161Z" fill="#fff"/><path d="M238.907,110.067v-8.161H212.885v8.161h8.187v17.282h-8.187v8.16h26.022v-8.16H230.72V110.067Z" fill="#fff"/><path d="M253.125,117.172l.24,18.337h-9.121v-33.6h7.2l15.217,19.922-.192-19.922h9.121v33.6h-8.16Z" fill="#fff"/><path d="M279.6,118.66c0-12,5.665-17.473,17.042-17.473,6.864,0,11.377,2.256,13.537,7.632l-7.776,3.937c-1.345-2.737-2.833-3.6-5.858-3.6-4.7,0-7.2,2.353-7.2,9.6,0,7.441,2.641,9.793,7.393,9.793,2.832,0,5.425-1.392,5.856-4.7h-5.856V116.74h14.545v18.77H304.71l-.576-3.793c-1.727,2.784-4.848,4.513-9.264,4.513-9.361,0-15.266-5.713-15.266-17.57" fill="#fff"/><path d="M336.48,111.844a7.375,7.375,0,0,0-6.817-3.5c-2.976,0-4.224,1.2-4.224,2.784,0,1.632,1.1,2.688,4.224,3.36l3.072.672c8.4,1.824,10.705,5.329,10.705,9.793,0,6.769-4.849,11.281-14.3,11.281-6.384,0-11.473-2.352-13.729-6.624l6.049-4.369a8.23,8.23,0,0,0,7.68,4.273c3.312,0,5.328-1.057,5.328-2.977,0-1.68-.864-2.352-3.888-3.12l-4.416-1.1c-7.345-1.824-9.505-5.9-9.505-10.033,0-6.48,4.8-11.089,13.2-11.089,5.328,0,10.272,1.872,12.913,6.481Z" fill="#fff"/><path d="M46.331,121.052c3.964,3.685,5.593,8.029,8.661,8.328a8.041,8.041,0,0,0,2.532-.136l-.006,6.385a13.757,13.757,0,0,1-4.03.6c-3.567,0-5.908-.742-9.562-6.1-1.879-2.755-4.817-6.48-7.532-8.489-2.5,0-4.669,1.629-4.669,3.579,0,2.53,2.063,4.512,5.482,4.512a8.4,8.4,0,0,0,3.295-.573v6.073c-.4.4-2.8,1-5.381,1-6.667,0-11.525-3.929-11.525-10.389a10.578,10.578,0,0,1,7.235-9.924c-1.344-1.551-2.791-3.308-2.791-6.253,0-5.221,5.187-8.477,11.337-8.477,2.43,0,5.508.711,6.022,1.224v6.145a11.394,11.394,0,0,0-5.258-1.3c-1.738,0-3.475,1.032-3.475,2.5,0,1.5,1.357,2.983,3.746,4.612H56.09l-.879,6.686Z" fill="#fff"/></g></g></g></svg>