<svg xmlns="http://www.w3.org/2000/svg" width="718.455" height="281.215" viewBox="0 0 718.455 281.215"><g transform="translate(0 0.645)"><path d="M20133.727-5288.094a65.677,65.677,0,0,0,10.508-20.788c7.711,7.951,16.318,11.936,22.627,11.936,7.277,0,11.615-4.495,11.615-13.322v-72.8h27.725v73.417c0,23.076-14.4,36.393-37.479,36.393A47.424,47.424,0,0,1,20133.727-5288.094Zm-117.557-40.76c0-31.6,25.094-54.209,58.551-54.209h89.873v22.3h-89.639c-16.7.041-30.6,13.816-30.6,32.066,0,18.275,14.1,32.367,30.674,32.367,16.721,0,30.043-14.091,30.043-32.367a33.282,33.282,0,0,0-7.312-21.236h31.525a54.7,54.7,0,0,1,4.127,21.078c0,31.6-25.088,55.6-58.693,55.6C20041.264-5273.253,20016.17-5297.1,20016.17-5328.854Zm-37.342,54.362-16.1-30.512h-21.689v30.512h-27.572v-108.419h48.486c28.652,0,45.066,13.633,45.066,37.794,0,16.568-6.971,28.493-19.666,34.843l22.766,35.781Zm-37.793-52.2h20.914c11.92,0,18.893-6.039,18.893-17.5,0-11.309-6.973-17.042-18.893-17.042h-20.914Zm-129.059,52.2v-108.419h47.236c27.73,0,43.676,13.633,43.676,37.794,0,25.4-15.945,40.113-43.676,40.113h-19.666v30.512Zm27.57-52.2h18.275c12.078,0,19.051-6.039,19.051-17.5,0-11.309-6.973-17.042-19.051-17.042h-18.275Zm380.541,52.191v-108.414h84.879v21.685h-57.309v21.532h51.732v21.68h-51.732v21.837h59.016v21.68Zm-42.07-118.132v-17l14.092-11.334,14.092,11.334v17Z" transform="translate(-19588.719 5420.962)" fill="#80181a" stroke="rgba(0,0,0,0)" stroke-miterlimit="10" stroke-width="1"/><path d="M49.566,7.58H0V116H30.666V87.656h18.9c29.581,0,48.166-15.335,48.166-39.961,0-24.78-18.585-40.116-48.166-40.116m-1.86,55.911H30.666V31.74h17.04c12.7,0,19.05,5.885,19.05,15.955,0,9.91-6.35,15.8-19.05,15.8M88.962,7.58c.99.705,1.96,1.435,2.89,2.205A45.771,45.771,0,0,1,106.587,31.9h15.635V116h30.671V31.9h33.146V7.58Z" transform="translate(0 30.318)" fill="#e12427"/><path d="M20138.9-5360.167a31.017,31.017,0,0,1-10.432-5.282l3.93-8.816a31.747,31.747,0,0,0,9.074,4.806,32.931,32.931,0,0,0,11.084,1.919,23.847,23.847,0,0,0,7.773-1.048,9.331,9.331,0,0,0,4.365-2.835,6.459,6.459,0,0,0,1.393-4.061,5.618,5.618,0,0,0-2.006-4.5,14.868,14.868,0,0,0-5.2-2.7q-3.182-1-7.068-1.833t-7.768-2.051a34.7,34.7,0,0,1-7.115-3.1,14.8,14.8,0,0,1-5.2-5.018,14.938,14.938,0,0,1-1.965-8.031,16.524,16.524,0,0,1,2.668-9.12,18.375,18.375,0,0,1,8.117-6.633c3.631-1.661,8.25-2.486,13.83-2.486a43.259,43.259,0,0,1,10.912,1.4,31.463,31.463,0,0,1,9.424,4.01l-3.57,8.821a33.825,33.825,0,0,0-8.467-3.625,32.205,32.205,0,0,0-8.385-1.175,21.567,21.567,0,0,0-7.592,1.129,9.228,9.228,0,0,0-4.318,3.013,6.907,6.907,0,0,0-1.357,4.147,5.674,5.674,0,0,0,1.965,4.5,13.844,13.844,0,0,0,5.154,2.658c2.123.638,4.492,1.256,7.109,1.833s5.211,1.266,7.77,2.051a33.967,33.967,0,0,1,7.068,3.053,14.925,14.925,0,0,1,5.2,4.978,14.492,14.492,0,0,1,1.965,7.9,16.4,16.4,0,0,1-2.664,9.034,18.3,18.3,0,0,1-8.162,6.634q-5.5,2.484-13.881,2.486A45.128,45.128,0,0,1,20138.9-5360.167Zm-238.369-.263a30.96,30.96,0,0,1-10.432-6.588,30.178,30.178,0,0,1-6.9-9.95,31.524,31.524,0,0,1-2.441-12.574,31.518,31.518,0,0,1,2.441-12.568,30.006,30.006,0,0,1,6.936-9.95,31.591,31.591,0,0,1,10.479-6.588,36.652,36.652,0,0,1,13.307-2.314,36.7,36.7,0,0,1,13.926,2.532,27.461,27.461,0,0,1,10.518,7.424l-7.154,6.978a23.743,23.743,0,0,0-7.729-5.282,23.791,23.791,0,0,0-9.119-1.7,24.5,24.5,0,0,0-8.953,1.57,20.65,20.65,0,0,0-7.023,4.446,20.412,20.412,0,0,0-4.623,6.811,22.011,22.011,0,0,0-1.662,8.639,22.116,22.116,0,0,0,1.662,8.6,20.348,20.348,0,0,0,4.623,6.856,20.763,20.763,0,0,0,6.988,4.446,24.072,24.072,0,0,0,8.9,1.57,27.04,27.04,0,0,0,8.775-1.438,21.338,21.338,0,0,0,3.8-1.752v-18.888h10.645v24.266a32.549,32.549,0,0,1-11,5.8,42.809,42.809,0,0,1-12.826,1.96A36.173,36.173,0,0,1,19900.529-5360.43Zm193.549,1.438v-51.494h-20.25v-9.6h51.844v9.6h-20.246v51.494Zm-38.232,0-33.6-41.427v41.427h-11.262v-61.1h9.342l33.689,41.442v-41.442h11.172v61.1Zm-103.336,0v-61.1h44.6v9.606h-33.254v15.794h29.5v9.343h-29.5v16.761h34.475v9.6Zm-86.242,0-6.053-14.133h-30.559l-6.072,14.133h-11.607l27.492-61.1h11.172l27.586,61.1Zm-32.789-23.035h22.93l-11.439-26.742Z" transform="translate(-19637.172 5638.186)" fill="#728086" stroke="rgba(0,0,0,0)" stroke-miterlimit="10" stroke-width="1"/></g></svg>