<?xml version="1.0" encoding="UTF-8"?><svg id="Layer_2" xmlns="http://www.w3.org/2000/svg" viewBox="0 0 518.2 182.73"><defs><style>.cls-1{fill:#dd2427;}.cls-1,.cls-2,.cls-3{stroke-width:0px;}.cls-2{fill:#80181a;}.cls-3{fill:#ea2427;}</style></defs><g id="Layer_1-2"><path class="cls-1" d="m35.77,27.36H0v78.25h22.13v-20.46h13.64c21.35,0,34.77-11.07,34.77-28.84s-13.41-28.95-34.77-28.95Zm-1.34,40.36h-12.3v-22.92h12.3c9.17,0,13.75,4.25,13.75,11.51s-4.58,11.4-13.75,11.4Zm29.78-40.36c.72.51,1.42,1.03,2.09,1.59,5.14,4.27,8.72,9.68,10.63,15.96h11.29v60.7h22.13v-60.7h23.92v-17.55h-70.07Z"/><path class="cls-2" d="m415.65,43.45h-64.7c-12.05.03-22.08,9.97-22.08,23.14s10.17,23.36,22.14,23.36,21.69-10.17,21.69-23.36c0-5.99-1.98-11.3-5.28-15.33h22.75c1.93,4.64,2.98,9.76,2.98,15.21,0,22.81-18.11,40.13-42.37,40.13s-42.26-17.22-42.26-40.13,18.11-39.13,42.26-39.13h64.87v16.1Zm-254.51-15.99v78.25h19.9v-22.02h14.2c20.01,0,31.52-10.62,31.52-28.95s-11.51-27.28-31.52-27.28h-34.1Zm19.9,15.65h13.19c8.72,0,13.75,4.14,13.75,12.3s-5.03,12.63-13.75,12.63h-13.19v-24.93Zm100.54,62.6h22.58l-16.43-25.82c9.17-4.58,14.2-13.19,14.2-25.15,0-17.44-11.85-27.28-32.53-27.28h-34.99v78.25h19.9v-22.02h15.65l11.63,22.02Zm-27.28-37.67v-24.93h15.09c8.61,0,13.64,4.14,13.64,12.3s-5.03,12.63-13.64,12.63h-15.09Zm262.67-24.93v-15.65h-61.26v78.25h62.49v-15.65h-42.59v-15.76h37.34v-15.65h-37.34v-15.54h41.36Zm-91.3-15.76v52.54c0,6.37-3.13,9.61-8.38,9.61-4.55,0-10.77-2.87-16.33-8.62-1.65,5.5-4.23,10.55-7.59,15.01,6.68,6.82,15.06,10.71,25.26,10.71,16.66,0,27.05-9.61,27.05-26.27V27.36h-20.01Zm20.01-19.17l-10.17-8.18-10.17,8.18v12.27s20.34,0,20.34,0v-12.27Z"/><path class="cls-3" d="m222.66,163.82c0,4.38-3.17,7.03-8.42,7.03h-4.99v6.11h-2.88v-20.17h7.87c5.25,0,8.42,2.65,8.42,7.03Zm-2.88,0c0-2.88-1.93-4.52-5.62-4.52h-4.9v9.05h4.9c3.69,0,5.62-1.64,5.62-4.52Z"/><path class="cls-3" d="m233.52,161.55v2.68c-.23-.03-.43-.03-.63-.03-2.97,0-4.81,1.82-4.81,5.16v7.61h-2.77v-15.27h2.65v2.56c.98-1.79,2.88-2.71,5.56-2.71Z"/><path class="cls-3" d="m234.34,169.33c0-4.55,3.37-7.78,7.95-7.78s7.93,3.23,7.93,7.78-3.34,7.81-7.93,7.81-7.95-3.26-7.95-7.81Zm13.08,0c0-3.26-2.19-5.36-5.13-5.36s-5.16,2.1-5.16,5.36,2.22,5.39,5.16,5.39,5.13-2.13,5.13-5.39Z"/><path class="cls-3" d="m268.91,169.33c0,4.7-3.26,7.81-7.72,7.81-2.16,0-4.06-.84-5.33-2.48v7.9h-2.77v-20.87h2.65v2.42c1.24-1.7,3.2-2.56,5.45-2.56,4.47,0,7.72,3.11,7.72,7.78Zm-2.8,0c0-3.23-2.22-5.36-5.16-5.36s-5.13,2.13-5.13,5.36,2.22,5.39,5.13,5.39,5.16-2.13,5.16-5.39Z"/><path class="cls-3" d="m285.83,170.25h-12.39c.35,2.68,2.51,4.47,5.53,4.47,1.79,0,3.29-.61,4.41-1.84l1.53,1.79c-1.38,1.61-3.49,2.48-6.02,2.48-4.93,0-8.21-3.26-8.21-7.81s3.26-7.78,7.67-7.78,7.55,3.17,7.55,7.87c0,.23-.03.58-.06.84Zm-12.39-1.99h9.8c-.29-2.56-2.22-4.38-4.9-4.38s-4.61,1.79-4.9,4.38Z"/><path class="cls-3" d="m296.91,161.55v2.68c-.23-.03-.43-.03-.63-.03-2.97,0-4.81,1.82-4.81,5.16v7.61h-2.77v-15.27h2.65v2.56c.98-1.79,2.88-2.71,5.56-2.71Z"/><path class="cls-3" d="m308.96,176.07c-.84.72-2.1,1.07-3.34,1.07-3.08,0-4.84-1.7-4.84-4.78v-8.39h-2.59v-2.28h2.59v-3.34h2.77v3.34h4.38v2.28h-4.38v8.27c0,1.64.86,2.56,2.39,2.56.81,0,1.59-.26,2.16-.72l.86,1.99Z"/><path class="cls-3" d="m325.53,161.69l-7.41,16.8c-1.35,3.23-3.11,4.24-5.45,4.24-1.47,0-2.97-.49-3.92-1.41l1.18-2.08c.75.72,1.7,1.12,2.74,1.12,1.33,0,2.16-.61,2.91-2.36l.49-1.07-6.74-15.25h2.88l5.33,12.22,5.27-12.22h2.71Z"/><path class="cls-3" d="m342.14,160.94v16.05h-5.13v-16.05h-6.02v-4.15h17.23v4.15h-6.08Z"/><path class="cls-3" d="m368.96,168.52c0,5.33-3.54,8.7-9.19,8.7s-9.31-3.37-9.31-8.7v-11.7h5.13v11.7c0,2.74,1.76,4.41,4.21,4.41s4.06-1.67,4.06-4.41v-11.7h5.1v11.7Z"/><path class="cls-3" d="m380.38,171.32h-4.03v5.68h-5.13v-20.17h9.02c5.33,0,8.39,2.54,8.39,7.03,0,3.08-1.3,5.3-3.66,6.48l4.24,6.66h-5.82l-3-5.68Zm-.14-4.03c2.22,0,3.52-1.12,3.52-3.26s-1.3-3.17-3.52-3.17h-3.89v6.43h3.89Z"/><path class="cls-3" d="m399.22,169.07l-2.68,2.97v4.96h-5.13v-20.17h5.13v8.73l7.72-8.73h5.94l-7.49,8.36,7.98,11.82h-6.14l-5.33-7.93Z"/><path class="cls-3" d="m417.18,160.85v4.01h9.63v4.03h-9.63v4.06h10.98v4.03h-16.11v-20.17h15.79v4.03h-10.66Z"/><path class="cls-3" d="m441.41,176.99h-5.1v-6.37l-7.46-13.8h5.13l4.87,8.79,4.76-8.79h5.13l-7.32,13.66v6.51Z"/><path class="cls-3" d="m76.02,161.63h-5.7l-3.07,15.33h2.19l.93-4.64h4.09c1.48,0,2.75-.24,3.83-.73,1.08-.49,1.91-1.2,2.49-2.12s.87-2.04.87-3.34c0-1.42-.49-2.52-1.47-3.31-.98-.79-2.37-1.18-4.16-1.18Zm2.14,7.74c-.87.69-2.09,1.04-3.65,1.04h-3.75l1.38-6.88h3.68c1.17,0,2.07.23,2.69.7s.94,1.16.94,2.08c0,1.34-.43,2.36-1.3,3.06Z"/><path class="cls-3" d="m92.05,165.86c-.82-.41-1.77-.61-2.87-.61-1.31,0-2.49.3-3.52.89-1.03.59-1.84,1.4-2.42,2.43s-.88,2.2-.88,3.52c0,1.01.23,1.89.68,2.64.45.75,1.08,1.34,1.9,1.75.81.42,1.77.62,2.88.62,1.33,0,2.5-.3,3.52-.9,1.01-.6,1.81-1.41,2.4-2.44.58-1.03.88-2.2.88-3.52,0-1.02-.22-1.91-.67-2.65-.45-.74-1.08-1.32-1.9-1.73Zm-.14,7.02c-.39.74-.92,1.32-1.61,1.74-.69.42-1.47.64-2.34.64-1.11,0-1.96-.29-2.56-.88-.6-.58-.9-1.38-.9-2.39s.2-1.81.59-2.55c.39-.74.93-1.31,1.62-1.73.69-.42,1.46-.62,2.32-.62,1.11,0,1.96.29,2.56.86.6.58.9,1.38.9,2.4,0,.95-.19,1.79-.58,2.53Z"/><polygon class="cls-3" points="113.92 165.36 108.72 174.57 106.97 165.36 105.18 165.36 99.92 174.57 98.21 165.36 96.3 165.36 98.52 176.97 100.53 176.97 105.56 168.19 107.34 176.97 109.4 176.97 115.91 165.36 113.92 165.36"/><path class="cls-3" d="m124.69,165.85c-.77-.4-1.69-.6-2.74-.6-1.26,0-2.38.3-3.36.89-.99.59-1.76,1.4-2.33,2.42-.57,1.02-.85,2.19-.85,3.5,0,1.02.23,1.91.68,2.66.45.75,1.1,1.34,1.93,1.75.83.42,1.82.62,2.96.62.89,0,1.75-.14,2.59-.43s1.53-.7,2.08-1.24l-.9-1.51c-.41.41-.93.73-1.56.97-.63.24-1.31.36-2.04.36-1.24,0-2.17-.29-2.77-.87-.61-.58-.91-1.39-.91-2.44,0-.05,0-.09,0-.13h9.52c.04-.23.08-.49.11-.76.03-.27.04-.54.04-.8,0-1.05-.22-1.95-.65-2.69-.43-.74-1.03-1.32-1.81-1.72Zm-6.68,3.5c.36-.74.88-1.31,1.54-1.73s1.43-.62,2.31-.62c.74,0,1.38.15,1.92.45.53.3.92.73,1.17,1.29.19.44.27.95.23,1.54h-7.51c.09-.33.19-.64.34-.93Z"/><path class="cls-3" d="m136.47,167.28l.39-2.04c-1.23,0-2.26.2-3.09.59-.58.27-1.08.7-1.52,1.26l.34-1.74h-2.02l-2.3,11.61h2.1l1.16-5.81c.26-1.34.77-2.33,1.52-2.96s1.71-.94,2.86-.94h.29c.09,0,.18,0,.26.02Z"/><path class="cls-3" d="m145.47,165.85c-.77-.4-1.69-.6-2.74-.6-1.26,0-2.38.3-3.36.89-.99.59-1.76,1.4-2.33,2.42-.57,1.02-.85,2.19-.85,3.5,0,1.02.23,1.91.68,2.66.45.75,1.1,1.34,1.93,1.75.83.42,1.82.62,2.96.62.89,0,1.75-.14,2.59-.43s1.53-.7,2.08-1.24l-.9-1.51c-.41.41-.93.73-1.56.97-.63.24-1.31.36-2.04.36-1.24,0-2.17-.29-2.77-.87-.61-.58-.91-1.39-.91-2.44,0-.05,0-.09,0-.13h9.52c.04-.23.08-.49.11-.76.03-.27.04-.54.04-.8,0-1.05-.22-1.95-.65-2.69-.43-.74-1.03-1.32-1.81-1.72Zm-6.68,3.5c.36-.74.88-1.31,1.54-1.73s1.43-.62,2.31-.62c.74,0,1.38.15,1.92.45.53.3.92.73,1.17,1.29.19.44.27.95.23,1.54h-7.51c.09-.33.19-.64.34-.93Z"/><path class="cls-3" d="m160.17,167.35s0-.02-.01-.03c-.38-.68-.92-1.19-1.62-1.54s-1.56-.53-2.56-.53c-.93,0-1.8.17-2.61.5-.8.34-1.5.81-2.09,1.42-.59.61-1.05,1.34-1.38,2.17-.33.83-.49,1.75-.49,2.74,0,1.05.22,1.95.67,2.69.45.75,1.06,1.32,1.83,1.72.77.4,1.65.6,2.63.6s1.83-.18,2.58-.53c.58-.27,1.07-.65,1.53-1.09l-.3,1.48h2.02l3.24-16.26h-2.1l-1.32,6.63Zm-2.84,7.28c-.69.42-1.47.64-2.34.64-1.11,0-1.96-.29-2.56-.88-.6-.58-.9-1.38-.9-2.39s.2-1.81.59-2.55c.39-.74.93-1.31,1.62-1.73.69-.42,1.46-.62,2.32-.62,1.11,0,1.96.29,2.56.86.6.58.9,1.38.9,2.4,0,.95-.19,1.79-.58,2.53s-.92,1.32-1.61,1.74Z"/><path class="cls-3" d="m183.02,172.98c.33-.83.49-1.75.49-2.74s-.22-1.93-.67-2.68c-.45-.75-1.05-1.33-1.82-1.72s-1.65-.59-2.64-.59-1.83.18-2.59.53c-.53.24-.99.59-1.42.97l1.22-6.04h-2.1l-3.24,16.26h1.99l.43-2.11s.04.1.07.15c.38.68.92,1.2,1.63,1.56s1.56.54,2.55.54c.93,0,1.8-.17,2.61-.51.8-.34,1.5-.82,2.09-1.43.59-.61,1.05-1.34,1.38-2.17Zm-2.22-.1c-.39.74-.93,1.32-1.61,1.74-.68.42-1.46.64-2.33.64-1.11,0-1.96-.29-2.56-.88-.6-.58-.9-1.38-.9-2.39s.19-1.81.58-2.55c.39-.74.93-1.31,1.62-1.73.69-.42,1.47-.62,2.33-.62,1.11,0,1.96.29,2.56.86.6.58.9,1.38.9,2.4,0,.95-.2,1.79-.59,2.53Z"/><path class="cls-3" d="m195.11,165.36l-5.86,9.3-2.23-9.3h-2.1l2.81,11.55-.6.92c-.41.64-.81,1.09-1.19,1.35-.39.25-.82.38-1.3.38-.41,0-.78-.07-1.11-.21-.33-.14-.62-.33-.87-.58l-1.1,1.56c.31.32.73.57,1.27.76.54.18,1.09.27,1.64.27.61,0,1.16-.09,1.65-.28.49-.19.96-.51,1.41-.96s.93-1.07,1.45-1.86l8.24-12.88h-2.12Z"/></g></svg>