<?xml version="1.0" encoding="UTF-8"?><svg id="b" xmlns="http://www.w3.org/2000/svg" viewBox="0 0 518.2 106.62"><g id="c"><path d="m415.65,27.36h-64.87c-24.15,0-42.26,16.32-42.26,39.13s18.11,40.13,42.26,40.13,42.37-17.33,42.37-40.13c0-5.45-1.06-10.57-2.98-15.21h-22.75c3.29,4.02,5.28,9.34,5.28,15.33,0,13.19-9.61,23.36-21.69,23.36s-22.14-10.17-22.14-23.36,10.03-23.11,22.08-23.14h64.7v-16.1Z" fill="#fff" stroke-width="0"/><path d="m195.24,27.47c20.01,0,31.52,9.84,31.52,27.28,0,18.33-11.51,28.95-31.52,28.95h-14.2v22.02h-19.9V27.47h34.1Zm-14.2,40.58h13.19c8.72,0,13.75-4.36,13.75-12.63s-5.03-12.3-13.75-12.3h-13.19v24.93Z" fill="#fff" stroke-width="0"/><path d="m269.95,83.7h-15.65v22.02h-19.9V27.47h34.99c20.68,0,32.53,9.84,32.53,27.28,0,11.96-5.03,20.57-14.2,25.15l16.43,25.82h-22.58l-11.63-22.02Zm-.56-15.65c8.61,0,13.64-4.36,13.64-12.63s-5.03-12.3-13.64-12.3h-15.09v24.93h15.09Z" fill="#fff" stroke-width="0"/><path d="m475.61,43.12v15.54h37.34v15.65h-37.34v15.76h42.59v15.65h-62.49V27.47h61.26v15.65h-41.36Z" fill="#fff" stroke-width="0"/><path d="m425.67,27.36v52.54c0,6.37-3.13,9.61-8.38,9.61-4.55,0-10.77-2.87-16.33-8.62-1.65,5.5-4.23,10.55-7.59,15.01,6.68,6.82,15.06,10.71,25.26,10.71,16.66,0,27.05-9.61,27.05-26.27V27.36h-20.01Z" fill="#fff" stroke-width="0"/><path d="m35.77,27.36H0v78.25h22.13v-20.46h13.64c21.35,0,34.77-11.07,34.77-28.84s-13.41-28.95-34.77-28.95Zm-1.34,40.36h-12.3v-22.92h12.3c9.17,0,13.75,4.25,13.75,11.51s-4.58,11.4-13.75,11.4Zm29.78-40.36c.72.51,1.42,1.03,2.09,1.59,5.14,4.27,8.72,9.68,10.63,15.96h11.29v60.7h22.13v-60.7h23.92v-17.55h-70.07Z" fill="#fff" stroke-width="0"/><polygon points="445.68 20.45 425.34 20.45 425.34 8.18 435.51 0 445.68 8.18 445.68 20.45" fill="#fff" stroke-width="0"/></g></svg>