<svg id="value-icon-partnership" xmlns="http://www.w3.org/2000/svg" viewBox="0 0 198.14 201.21"><g id="c"><path d="m197.07,122.45c-4.47-16.71-21.63-26.64-38.34-22.17-7.98,2.13-14.79,7.33-18.96,14.47l-12.57-6.13c1.95-5.39,2.19-11.26.69-16.8-.02-.06-.04-.13-.06-.19l8.92-3.29c3.41,5.41,10.56,7.04,15.98,3.63,5.41-3.41,7.04-10.56,3.63-15.98-3.41-5.42-10.56-7.04-15.98-3.63-3.89,2.45-5.97,6.97-5.29,11.52l-8.9,3.29c-2.05-4.41-5.22-8.2-9.19-11.01l9.85-16.7c4.29,2.12,9,3.22,13.78,3.22,2.75,0,5.5-.36,8.16-1.08,16.71-4.48,26.63-21.66,22.15-38.38-2.15-8.02-7.4-14.87-14.59-19.02-14.99-8.65-34.15-3.52-42.81,11.47-4.15,7.19-5.28,15.75-3.13,23.77,1.9,7.15,6.28,13.39,12.35,17.6l-9.84,16.71c-4.76-2.31-10.08-3.21-15.34-2.61l-2.62-13.16c5.89-2.51,8.64-9.32,6.12-15.22-2.51-5.89-9.32-8.63-15.21-6.12-5.9,2.51-8.64,9.33-6.13,15.22,1.81,4.24,5.95,7.01,10.56,7.05l2.62,13.17c-5.14,1.46-9.75,4.37-13.28,8.38l-21.82-16.23c.22-.35.45-.71.65-1.08,8.65-14.99,3.52-34.15-11.47-42.8-14.99-8.66-34.15-3.52-42.8,11.46C.04,39.01-1.08,47.56,1.07,55.59c3.67,13.68,16.05,23.2,30.21,23.24,2.76,0,5.5-.37,8.16-1.08,6.04-1.61,11.46-4.99,15.55-9.71l21.82,16.23c-.16.25-.32.5-.47.76-3.17,5.46-4.39,11.84-3.47,18.1l-14.66,3.4c-2.71-5.81-9.61-8.32-15.42-5.62-5.81,2.71-8.33,9.61-5.62,15.42,2.7,5.81,9.61,8.33,15.42,5.62,4.18-1.94,6.81-6.18,6.7-10.79l14.66-3.4c1.72,5.38,5.04,10.11,9.5,13.56l-14.63,21.4c-4.93-2.84-10.3-4.19-15.61-4.19-10.84,0-21.39,5.64-27.18,15.71-8.64,14.99-3.48,34.15,11.52,42.79,4.72,2.72,10.08,4.16,15.53,4.18,2.76,0,5.5-.37,8.16-1.08,16.72-4.49,26.64-21.68,22.16-38.39-1.73-6.44-5.46-12.16-10.66-16.33l14.7-21.49c4.06,2.19,8.61,3.34,13.23,3.34,2.08,0,4.16-.24,6.19-.7l3.56,11.31c-5.6,3.14-7.59,10.21-4.46,15.8,3.14,5.6,10.21,7.59,15.8,4.46,5.6-3.14,7.59-10.21,4.46-15.8-2.26-4.03-6.67-6.33-11.26-5.88l-3.56-11.31c5.77-2.35,10.59-6.56,13.69-11.96.05-.08.09-.16.13-.24l12.47,6.07c-6.38,16.09,1.48,34.3,17.57,40.68,16.08,6.38,34.29-1.49,40.67-17.57,2.49-6.26,2.88-13.16,1.14-19.67Z" fill="#80181a" stroke-width="0"/><path d="m122.99,148.01c0,3.79-3.07,6.87-6.86,6.88-3.8,0-6.88-3.07-6.88-6.86,0-3.11,2.08-5.83,5.08-6.64.58-.16,1.18-.24,1.78-.24,3.79-.01,6.87,3.07,6.88,6.86Z" fill="#728082" stroke-width="0"/><path d="m153.44,82.18c0,3.03-2.02,5.8-5.09,6.62-3.65.98-7.41-1.19-8.39-4.85-.98-3.65,1.19-7.41,4.84-8.39.58-.16,1.18-.24,1.78-.24,3.1.01,5.81,2.09,6.62,5.08.16.59.24,1.19.24,1.78Z" fill="#728082" stroke-width="0"/><path d="m97.27,47.37c0,3-1.98,5.75-5.02,6.59-3.64,1.02-7.42-1.12-8.43-4.76-.02-.04-.03-.08-.04-.12h.01c-.98-3.66,1.19-7.42,4.84-8.4.58-.15,1.18-.23,1.78-.23,3.1,0,5.81,2.09,6.61,5.08.17.61.25,1.23.25,1.84Z" fill="#728082" stroke-width="0"/><path d="m49.57,118.02s-.06.02-.1.03c-3.66.98-7.42-1.19-8.4-4.85-.97-3.65,1.2-7.41,4.85-8.39,3.66-.98,7.41,1.19,8.39,4.85,1,3.61-1.12,7.36-4.74,8.36Z" fill="#728082" stroke-width="0"/><path d="m32.27,174.22c-3.03-11.32,1.72-22.89,10.97-29.03-12.33,4.93-19.3,18.41-15.78,31.55,3.8,14.18,18.37,22.59,32.55,18.79,2.86-.77,5.48-1.98,7.82-3.53-.97.39-1.98.73-3.01,1.01-14.18,3.8-28.75-4.61-32.55-18.79Z" fill="#728082" stroke-width="0"/><path d="m78.81,162.98c-1.81-6.82-6.27-12.63-12.39-16.14-6.1-3.54-13.36-4.5-20.17-2.66-1.04.28-2.04.62-3.01,1.01-9.25,6.14-14,17.71-10.97,29.03,3.8,14.18,18.37,22.59,32.55,18.79,1.04-.28,2.04-.62,3.01-1.01,9.25-6.14,14.01-17.7,10.98-29.02Z" fill="#cbe3e5" stroke-width="0"/><path d="m145.93,134.92c-3.03-11.33,1.72-22.89,10.98-29.03-12.33,4.93-19.31,18.4-15.79,31.55,3.8,14.18,18.38,22.59,32.56,18.79,2.88-.77,5.51-2,7.86-3.56-.99.4-1.99.76-3.04,1.04-14.18,3.8-28.76-4.61-32.56-18.79Z" fill="#728082" stroke-width="0"/><path d="m193.38,130.54c0-2.27-.29-4.57-.9-6.87-3.8-14.18-18.38-22.59-32.56-18.79-1.04.28-2.04.62-3.01,1.01-9.25,6.14-14.01,17.7-10.98,29.03,3.8,14.18,18.38,22.59,32.56,18.79,1.05-.28,2.06-.64,3.04-1.04,7.34-4.9,11.84-13.22,11.84-22.13Z" fill="#cbe3e5" stroke-width="0"/><path d="m132.2,51.83c-6.1-3.52-10.56-9.33-12.38-16.14-3.03-11.31,1.72-22.88,10.97-29.02-12.33,4.93-19.3,18.41-15.78,31.54,1.82,6.81,6.28,12.62,12.38,16.14,9.04,5.22,19.86,4.52,28-.88-7.31,2.93-15.84,2.6-23.19-1.64Z" fill="#728082" stroke-width="0"/><path d="m163.7,44.62c7.34-12.71,2.99-28.97-9.72-36.31-6.1-3.54-13.37-4.49-20.17-2.65h-.01c-1.04.28-2.04.62-3.01,1.01-9.25,6.14-14,17.71-10.97,29.02,1.82,6.81,6.28,12.62,12.38,16.14,7.35,4.24,15.88,4.57,23.19,1.64,3.31-2.2,6.19-5.17,8.31-8.85Z" fill="#cbe3e5" stroke-width="0"/><path d="m111.58,119.18c-12.48,3.35-25.3-4.06-28.65-16.53-2.65-9.86,1.42-19.93,9.39-25.37-11.05,4.22-17.34,16.21-14.2,27.9,3.35,12.47,16.17,19.88,28.65,16.53h0c2.62-.69,5.03-1.83,7.18-3.3-.77.3-1.55.57-2.36.79h0Z" fill="#728082" stroke-width="0"/><path d="m124.11,99.14c.02-12.92-10.43-23.41-23.35-23.43-2.06,0-4.12.27-6.11.81-.8.21-1.57.47-2.33.76-7.97,5.45-12.04,15.52-9.39,25.37,3.35,12.47,16.17,19.88,28.65,16.53h0c.81-.21,1.59-.48,2.36-.78,6.22-4.27,10.16-11.39,10.16-19.26Z" fill="#cbe3e5" stroke-width="0"/><path d="m10.33,52.08c-3.13-11.37,1.61-23.03,10.93-29.21C8.85,27.83,1.89,41.42,5.52,54.6c3.9,14.15,18.54,22.46,32.69,18.56,2.87-.77,5.52-1.99,7.89-3.58-1,.4-2.02.77-3.08,1.05-14.15,3.9-28.79-4.41-32.69-18.56Z" fill="#728082" stroke-width="0"/><path d="m57.91,47.54c.03-14.69-11.85-26.62-26.53-26.65-2.34,0-4.67.31-6.93.92-.12.03-.24.06-.36.1-.97.27-1.92.59-2.83.96-9.31,6.18-14.06,17.84-10.93,29.21,3.9,14.15,18.54,22.46,32.69,18.56,1.06-.28,2.08-.65,3.08-1.05,7.21-4.82,11.8-13,11.81-22.04Z" fill="#cbe3e5" stroke-width="0"/><path d="m40.05,49.24c-.53-.85-1.21-1.53-2.05-2.03s-1.76-.92-2.77-1.25c-.83-.27-1.67-.49-2.52-.69v-5.97c.62.08,1.25.2,1.89.37,1.17.32,2.3.79,3.4,1.42l1.79-4.27c-1.12-.7-2.44-1.24-3.94-1.61-1.04-.26-2.09-.42-3.14-.5v-3.85h-3.54v3.91c-1.4.15-2.63.44-3.66.91-1.53.69-2.67,1.61-3.42,2.77-.75,1.15-1.12,2.43-1.12,3.83,0,1.29.25,2.36.75,3.21.51.85,1.18,1.54,2.03,2.07.86.52,1.79.94,2.81,1.26.87.27,1.74.5,2.61.7v5.87c-1.03-.1-2.06-.31-3.09-.65-1.45-.48-2.68-1.09-3.71-1.84l-1.93,4.28c1.1.84,2.56,1.52,4.37,2.05,1.4.41,2.86.65,4.36.74v3.83h3.54v-3.93c1.34-.15,2.53-.45,3.54-.9,1.54-.71,2.69-1.63,3.45-2.77.76-1.15,1.14-2.41,1.14-3.79,0-1.26-.26-2.32-.79-3.17Zm-10.88-4.83c-.74-.22-1.35-.5-1.82-.86-.52-.4-.78-.93-.78-1.58,0-.52.16-.98.48-1.4.31-.42.81-.76,1.49-1,.19-.07.4-.13.63-.18v5.02Zm5.54,9.77c-.33.39-.84.7-1.53.93-.14.05-.31.09-.47.13v-4.8c.69.22,1.27.5,1.72.83.51.39.77.91.77,1.56,0,.52-.17.97-.49,1.35Z" fill="#80181a" stroke-width="0"/><path d="m110.12,101.02c-.52-.85-1.21-1.53-2.05-2.03-.84-.51-1.76-.92-2.76-1.25-.84-.27-1.68-.5-2.53-.69v-5.97c.62.08,1.25.2,1.89.37,1.17.32,2.3.79,3.4,1.42l1.79-4.27c-1.12-.71-2.44-1.24-3.94-1.62-1.04-.25-2.08-.42-3.14-.5v-3.84h-3.54v3.9c-1.39.15-2.62.45-3.66.92-1.53.69-2.67,1.61-3.42,2.76-.75,1.16-1.12,2.44-1.12,3.84,0,1.29.25,2.36.76,3.21.5.85,1.17,1.54,2.03,2.07.85.52,1.79.94,2.8,1.26.88.27,1.75.5,2.61.7v5.87c-1.03-.1-2.06-.31-3.08-.65-1.45-.48-2.69-1.09-3.72-1.84l-1.92,4.28c1.09.84,2.55,1.52,4.36,2.05,1.41.4,2.86.65,4.36.74v3.83h3.54v-3.93c1.34-.16,2.53-.45,3.54-.91,1.54-.7,2.69-1.62,3.45-2.77.76-1.14,1.14-2.4,1.14-3.78,0-1.26-.26-2.32-.79-3.17Zm-10.88-4.83c-.74-.22-1.35-.5-1.82-.87-.51-.39-.77-.92-.77-1.57,0-.52.16-.98.47-1.4.32-.43.81-.76,1.49-1,.19-.07.41-.13.63-.18v5.02Zm5.54,9.77c-.33.39-.84.69-1.52.93-.15.05-.31.09-.48.13v-4.81c.7.23,1.28.51,1.72.84.51.39.77.91.77,1.56,0,.52-.16.96-.49,1.35Z" fill="#80181a" stroke-width="0"/><path d="m150.09,33.24c-.52-.85-1.21-1.53-2.05-2.03-.84-.51-1.76-.92-2.77-1.25-.83-.27-1.67-.5-2.52-.69v-5.97c.62.08,1.25.2,1.89.37,1.17.32,2.3.79,3.4,1.42l1.79-4.27c-1.12-.71-2.44-1.24-3.94-1.62-1.04-.25-2.09-.42-3.14-.5v-3.84h-3.54v3.9c-1.39.15-2.62.45-3.66.92-1.53.69-2.67,1.61-3.42,2.76-.75,1.16-1.12,2.44-1.12,3.84,0,1.29.25,2.36.76,3.21.5.85,1.17,1.54,2.03,2.07.85.52,1.78.94,2.8,1.26.88.27,1.75.5,2.61.7v5.87c-1.03-.1-2.06-.31-3.08-.65-1.45-.48-2.69-1.09-3.72-1.84l-1.93,4.28c1.1.84,2.56,1.52,4.37,2.05,1.41.4,2.86.65,4.36.74v3.83h3.54v-3.93c1.34-.15,2.53-.45,3.54-.91,1.54-.7,2.69-1.62,3.45-2.76.76-1.15,1.14-2.41,1.14-3.79,0-1.26-.26-2.32-.79-3.17Zm-10.88-4.83c-.74-.22-1.35-.5-1.82-.87-.51-.39-.77-.92-.77-1.57,0-.52.16-.98.47-1.4.32-.43.81-.76,1.49-1,.19-.07.41-.13.63-.18v5.02Zm5.54,9.77c-.33.39-.84.69-1.53.93-.14.05-.3.09-.47.13v-4.81c.7.23,1.27.51,1.72.84.51.39.77.91.77,1.56,0,.52-.16.96-.49,1.35Z" fill="#80181a" stroke-width="0"/><path d="m62.54,171.77c-.52-.86-1.21-1.54-2.05-2.04-.84-.5-1.76-.91-2.76-1.24-.84-.27-1.68-.5-2.53-.7v-5.97c.62.08,1.25.2,1.89.38,1.17.31,2.3.79,3.4,1.42l1.79-4.28c-1.12-.7-2.44-1.24-3.94-1.61-1.04-.26-2.08-.42-3.14-.5v-3.85h-3.54v3.91c-1.39.15-2.62.45-3.66.91-1.53.69-2.67,1.62-3.42,2.77-.75,1.16-1.12,2.44-1.12,3.84,0,1.28.25,2.35.76,3.21.5.85,1.17,1.54,2.03,2.06.85.53,1.78.95,2.8,1.26.88.28,1.75.51,2.61.71v5.87c-1.03-.1-2.06-.32-3.08-.65-1.45-.48-2.69-1.1-3.72-1.84l-1.92,4.27c1.09.84,2.55,1.53,4.36,2.05,1.41.41,2.86.66,4.36.75v3.83h3.54v-3.93c1.34-.16,2.53-.45,3.54-.91,1.54-.7,2.69-1.62,3.45-2.77.76-1.14,1.14-2.41,1.14-3.78,0-1.26-.26-2.32-.79-3.17Zm-10.88-4.83c-.74-.22-1.35-.51-1.82-.87-.51-.4-.77-.92-.77-1.58,0-.51.16-.98.47-1.4.32-.42.81-.75,1.49-1,.19-.07.41-.12.63-.17v5.02Zm5.54,9.77c-.33.38-.84.69-1.52.92-.15.05-.31.1-.48.13v-4.8c.7.23,1.28.5,1.72.84.51.38.77.9.77,1.56,0,.51-.16.96-.49,1.35Z" fill="#80181a" stroke-width="0"/><path d="m176.68,132.46c-.53-.85-1.21-1.53-2.05-2.03-.84-.5-1.77-.92-2.77-1.24-.83-.28-1.68-.5-2.52-.7v-5.97c.61.08,1.24.2,1.89.38,1.17.31,2.3.79,3.4,1.42l1.79-4.28c-1.13-.7-2.44-1.24-3.95-1.61-1.03-.26-2.08-.42-3.13-.5v-3.85h-3.54v3.91c-1.4.15-2.63.44-3.66.91-1.54.69-2.67,1.61-3.42,2.77-.75,1.16-1.12,2.43-1.12,3.84,0,1.28.25,2.35.75,3.2.5.86,1.18,1.55,2.03,2.07.85.53,1.79.95,2.81,1.26.87.27,1.74.5,2.61.71v5.86c-1.04-.09-2.07-.31-3.09-.65-1.45-.47-2.68-1.09-3.71-1.83l-1.93,4.27c1.1.84,2.55,1.53,4.36,2.05,1.41.41,2.87.65,4.37.74v3.84h3.54v-3.93c1.34-.16,2.53-.45,3.54-.91,1.54-.7,2.69-1.62,3.45-2.77.76-1.14,1.14-2.41,1.14-3.79,0-1.26-.26-2.31-.79-3.17Zm-10.88-4.83c-.74-.21-1.36-.5-1.82-.86-.52-.4-.78-.92-.78-1.58,0-.51.16-.98.48-1.4.31-.42.81-.76,1.49-1,.19-.07.4-.13.63-.18v5.02Zm5.53,9.78c-.32.38-.83.69-1.52.92-.15.05-.31.09-.47.13v-4.8c.69.23,1.27.5,1.71.84.52.38.77.9.77,1.55,0,.52-.16.97-.49,1.36Z" fill="#80181a" stroke-width="0"/></g></svg>