<svg id="value-icon-diamond" xmlns="http://www.w3.org/2000/svg" viewBox="0 0 218.68 226.87"><g id="c"><path d="m216.46,39.29l-.12-.03-28.06-9.35-9.39-27.68c-.31-1.23-1.59-2.23-2.86-2.23s-2.56,1-2.86,2.23l-.04.11-9.35,27.57-27.18,9.38c-1.22.31-2.22,1.59-2.22,2.86s1,2.56,2.22,2.86l.12.04,27.56,9.35,9.39,27.68c.3,1.23,1.59,2.22,2.86,2.22s2.55-.99,2.86-2.22l.04-.12,9.35-27.56,27.68-9.39c1.22-.3,2.22-1.58,2.22-2.86s-1-2.55-2.22-2.86Z" fill="#80181a" stroke-width="0"/><path d="m176.03,14.04l-6.7,19.48c-.33.99-.94,1.61-1.94,1.94l-18.98,6.69,19.49,6.7c.99.33,1.6.95,1.93,1.95l6.7,19.47,6.7-19.49c.33-.98.94-1.6,1.93-1.93l19.49-6.7-19.99-6.7c-.99-.32-1.6-.94-1.94-1.94l-6.69-19.47h0Z" fill="#728082" stroke-width="0"/><path d="m166.69,112.6l-.13-.22-21.59-42.69c-.14-.31-1.16-2.4-3.75-2.07l-.19.02H24.96c-1.06,0-1.93.83-2.56,1.43-.21.2-.41.39-.63.55L0,113.18c0,.8.17,2.06.36,2.57l79.97,109.65c.93,1.03,1.91,1.52,2.87,1.47.97-.06,1.78-.64,2.13-.98v-.04l.29-.4,80.56-109.8c.3-.47,1.16-2.19.51-3.05Z" fill="#80181a" stroke-width="0"/><polygon points="135.24 74.23 111.78 108.61 88.31 74.23 135.24 74.23" fill="#80181a" stroke-width="0"/><polygon points="105.52 110.33 61.07 110.33 82.47 76.85 105.52 110.33" fill="#80181a" stroke-width="0"/><polygon points="76.14 74.23 54.76 107.68 31.18 74.23 76.14 74.23" fill="#80181a" stroke-width="0"/><polygon points="25.72 77.15 48.94 110.33 8.58 110.33 25.72 77.15" fill="#80181a" stroke-width="0"/><polygon points="10.03 116.92 52.5 116.92 75.86 207.71 10.03 116.92" fill="#80181a" stroke-width="0"/><polygon points="83.49 210.75 58.99 116.92 107.47 116.92 83.49 210.75" fill="#80181a" stroke-width="0"/><polygon points="91.09 207.71 114.45 116.92 156.93 116.92 91.09 207.71" fill="#80181a" stroke-width="0"/><polygon points="118.53 110.33 141.24 77.09 157.85 110.33 118.53 110.33" fill="#80181a" stroke-width="0"/><path d="m176.03,26.34l2.9,8.45c.75,2.19,2.29,3.73,4.46,4.45l8.96,2.91-8.45,2.91c-2.18.73-3.72,2.27-4.45,4.42l-2.92,8.49-2.91-8.45c-.73-2.19-2.27-3.74-4.42-4.45l-8.48-2.92,7.92-2.89c2.2-.73,3.75-2.27,4.47-4.44l2.92-8.48" fill="#cbe3e5" stroke-width="0"/><polygon points="25.72 77.15 8.58 110.33 15.42 110.33 29.65 82.77 25.72 77.15" fill="#728082" stroke-width="0"/><polygon points="29.65 82.77 15.42 110.33 48.94 110.33 29.65 82.77" fill="#cbe3e5" stroke-width="0"/><polygon points="86.43 82.6 68.71 110.33 105.52 110.33 86.43 82.6" fill="#cbe3e5" stroke-width="0"/><polygon points="82.47 76.85 61.07 110.33 68.71 110.33 86.43 82.6 82.47 76.85" fill="#728082" stroke-width="0"/><polygon points="141.24 77.09 118.53 110.33 125.73 110.33 144.28 83.18 141.24 77.09" fill="#728082" stroke-width="0"/><polygon points="144.28 83.18 125.73 110.33 157.85 110.33 144.28 83.18" fill="#cbe3e5" stroke-width="0"/><polygon points="74.46 76.86 76.14 74.23 31.18 74.23 54.76 107.68 57.97 102.65 39.8 76.86 74.46 76.86" fill="#728082" stroke-width="0"/><polygon points="39.8 76.86 57.97 102.65 74.46 76.86 39.8 76.86" fill="#cbe3e5" stroke-width="0"/><polygon points="97.11 76.86 115.57 103.05 133.44 76.86 97.11 76.86" fill="#cbe3e5" stroke-width="0"/><polygon points="133.44 76.86 135.24 74.23 88.31 74.23 111.78 108.61 115.57 103.05 97.11 76.86 133.44 76.86" fill="#728082" stroke-width="0"/><polygon points="26.08 121.64 53.71 121.64 52.5 116.92 10.03 116.92 75.86 207.71 74.05 200.66 26.08 121.64" fill="#728082" stroke-width="0"/><polygon points="74.05 200.66 53.71 121.64 26.08 121.64 74.05 200.66" fill="#cbe3e5" stroke-width="0"/><polygon points="153.51 121.64 156.93 116.92 114.45 116.92 91.09 207.71 92.86 205.27 118.24 121.64 153.51 121.64" fill="#728082" stroke-width="0"/><polygon points="118.24 121.64 92.86 205.27 153.51 121.64 118.24 121.64" fill="#cbe3e5" stroke-width="0"/><polygon points="106.27 121.64 107.47 116.92 58.99 116.92 83.49 210.75 83.77 209.66 68.8 121.64 106.27 121.64" fill="#728082" stroke-width="0"/><polygon points="68.8 121.64 83.77 209.66 106.27 121.64 68.8 121.64" fill="#cbe3e5" stroke-width="0"/></g></svg>