<svg id="value-icon-trust" xmlns="http://www.w3.org/2000/svg" viewBox="0 0 151.05 182.67"><g id="c"><path d="m140.21,14.01c-.59-.51-1.11-1.05-1.55-1.62-4.21-5.33-2.2-12.39-2.2-12.39H14.59s2.23,7.84-2.92,13.23c-.5.52-1.06,1.01-1.69,1.47-2.26,1.63-5.45,2.88-9.98,3.32v83.99s2.23,21.45,20.93,38.21c.55.5,1.11.99,1.7,1.47.64.54,1.29,1.07,1.97,1.6,22.11,17.08,50.88,39.38,50.88,39.38h.09s28.78-22.3,50.88-39.38c.39-.3.75-.6,1.12-.9.59-.48,1.17-.96,1.72-1.44,19.46-16.87,21.76-38.94,21.76-38.94V18.02c-5.14-.5-8.56-2.04-10.84-4.01Z" fill="#80181a" stroke-width="0"/><path d="m136.3,18.55c-.88-.75-1.68-1.59-2.38-2.48-2.61-3.31-3.6-6.95-3.87-10.07H43.25c-.44,4.87-2.18,10.28-6.44,14.75-.96,1.01-2.04,1.95-3.27,2.86-1.44,1.04-3.03,1.94-4.75,2.72-1.56.7-3.22,1.31-4.99,1.79v56.45c9.82,36.97,43.59,64.3,83.59,64.3.7,0,1.4-.01,2.09-.03,4.52-3.5,9.04-6.99,13.3-10.29.36-.27.67-.53.98-.78.6-.49,1.11-.92,1.57-1.32,16.26-14.09,19.38-32.43,19.72-34.81V23.03c-3.47-.94-6.4-2.44-8.75-4.48Z" fill="#cbe3e5" stroke-width="0"/><path d="m107.39,148.85c-40.01,0-73.77-27.32-83.59-64.3V28.11c3.73-1.01,6.99-2.52,9.74-4.51,1.23-.91,2.31-1.84,3.27-2.86,4.26-4.47,6-9.88,6.44-14.75h-22.27c-.34,3.75-1.68,7.92-4.96,11.36-.74.78-1.57,1.5-2.52,2.2-2.12,1.53-4.63,2.69-7.5,3.47v78.6c.33,2.27,3.33,20.13,18.93,34.12.02.01.03.02.04.04.56.5,1.03.91,1.47,1.26l.05.04.04.04c.53.46,1.1.91,1.73,1.4,17.27,13.35,38.82,30.05,47.27,36.59,6.36-4.93,20.15-15.62,33.95-26.29-.69.02-1.39.03-2.09.03Z" fill="#728082" stroke-width="0"/><path d="m58.94,113.59c-21.52-8.88-32.12-33.19-24.29-54.88-.28.6-.55,1.21-.81,1.83-9.14,22.15,1.44,47.6,23.58,56.74s47.61-1.43,56.75-23.57c.26-.62.49-1.24.72-1.87-9.76,20.89-34.42,30.64-55.94,21.75Z" fill="#728082" stroke-width="0"/><path d="m92.1,33.27c-22.14-9.14-47.6,1.43-56.74,23.58-.26.62-.49,1.24-.72,1.87-7.82,21.69,2.78,45.99,24.29,54.88s46.18-.86,55.94-21.75c.28-.6.55-1.21.81-1.83,9.14-22.15-1.44-47.6-23.59-56.75Z" fill="#80181a" stroke-width="0"/><path d="m54.7,96.91c-14.81-13.14-16.88-35.37-5.26-50.98-.79.75-1.55,1.52-2.28,2.35-13.87,15.64-12.43,39.66,3.21,53.52s39.66,12.43,53.53-3.21c.73-.82,1.41-1.68,2.06-2.55-14.11,13.4-36.43,14.01-51.25.87Z" fill="#728082" stroke-width="0"/><path d="m54.7,96.91c14.82,13.14,37.14,12.53,51.25-.87,11.61-15.6,9.54-37.84-5.28-50.98s-37.13-12.53-51.23.87c-11.61,15.61-9.55,37.84,5.26,50.98Z" fill="#cbe3e5" stroke-width="0"/><path d="m83.6,79.39v14.5h-16.15v-14.32c-3.5-2.4-7.08-6.73-7.08-12.03,0-8.03,6.8-14.56,15.15-14.56s15.15,6.53,15.15,14.56c0,6.32-4.93,10.38-7.07,11.85Z" fill="#80181a" stroke-width="0"/><path d="m80.66,59.92c-1.49-.89-3.25-1.41-5.14-1.41-5.3,0-9.61,4.05-9.61,9.03,0,3.42,2.92,6.58,5.64,8.06l1.44.79v11.96h5.07v-12.15l.07-.04,1.37-.74c2.81-1.54,5.64-4.57,5.64-7.88s-1.79-6.02-4.48-7.62Z" fill="#728082" stroke-width="0"/></g></svg>