<svg xmlns="http://www.w3.org/2000/svg" width="66.68" height="67" viewBox="0 0 66.68 67"><path d="M56.965,9.736A33.209,33.209,0,0,0,4.71,49.8L0,67l17.6-4.617a33.172,33.172,0,0,0,15.866,4.041h.014A33.215,33.215,0,0,0,56.965,9.736M33.48,60.817h-.011a27.552,27.552,0,0,1-14.045-3.846l-1.008-.6L7.972,59.112,10.76,48.929,10.1,47.885A27.594,27.594,0,1,1,33.48,60.817M48.616,40.15c-.83-.415-4.908-2.422-5.668-2.7s-1.314-.415-1.867.415-2.143,2.7-2.627,3.253-.967.623-1.8.208a22.688,22.688,0,0,1-6.671-4.118,25,25,0,0,1-4.615-5.747c-.484-.83-.051-1.279.364-1.693.373-.371.829-.969,1.244-1.453a5.637,5.637,0,0,0,.829-1.384,1.527,1.527,0,0,0-.068-1.453c-.208-.415-1.867-4.5-2.558-6.16-.674-1.617-1.358-1.4-1.867-1.424-.483-.024-1.037-.029-1.59-.029A3.046,3.046,0,0,0,19.513,18.9a9.3,9.3,0,0,0-2.9,6.92c0,4.084,2.972,8.028,3.387,8.582s5.849,8.933,14.171,12.526A47.869,47.869,0,0,0,38.9,48.68a11.369,11.369,0,0,0,5.225.328c1.594-.238,4.908-2.006,5.6-3.944a6.942,6.942,0,0,0,.484-3.945c-.208-.346-.76-.554-1.59-.969" fill="#728086" fill-rule="evenodd"/></svg>