<?xml version="1.0" encoding="UTF-8"?><svg id="Layer_2" xmlns="http://www.w3.org/2000/svg" viewBox="0 0 336 434"><defs><style>.cls-1{fill:none;stroke:#222831;stroke-linecap:round;stroke-linejoin:round;stroke-width:14px;}</style></defs><g id="Preview"><circle class="cls-1" cx="168" cy="168" r="112"/><polyline class="cls-1" points="126 168 154 196 210 140"/><path class="cls-1" d="m329,168c0,9.465-7.612,18.138-9.169,27.15-1.601,9.266,2.602,20.044-.502,28.686-3.16,8.796-13.244,14.305-17.809,22.302-4.608,8.072-4.305,19.669-10.188,26.767-5.9,7.119-17.227,8.816-24.25,14.795-7.003,5.962-10.607,16.982-18.571,21.652-7.889,4.626-19.097,2.311-27.775,5.513-8.526,3.146-15.633,12.25-24.775,13.873-8.889,1.578-18.626-4.491-27.961-4.491s-19.076,6.069-27.968,4.49c-9.141-1.623-16.248-10.728-24.775-13.874-8.678-3.203-19.888-.889-27.777-5.516-7.963-4.67-11.567-15.691-18.57-21.654-7.023-5.98-18.35-7.678-24.249-14.797-5.882-7.099-5.578-18.695-10.185-26.767-4.564-7.996-14.648-13.504-17.807-22.3-3.104-8.642,1.1-19.42-.501-28.685-1.557-9.01-9.168-17.681-9.168-27.144s7.612-18.138,9.169-27.15c1.601-9.266-2.602-20.044.502-28.686,3.16-8.796,13.244-14.305,17.809-22.302,4.608-8.072,4.305-19.669,10.188-26.767,5.9-7.119,17.227-8.816,24.25-14.795,7.003-5.962,10.607-16.982,18.571-21.652,7.889-4.626,19.097-2.311,27.775-5.513,8.526-3.146,15.633-12.25,24.775-13.873,8.889-1.578,18.626,4.491,27.961,4.491s19.076-6.069,27.968-4.49c9.141,1.623,16.248,10.728,24.775,13.874,8.678,3.203,19.888.889,27.777,5.516,7.963,4.67,11.567,15.691,18.57,21.654,7.023,5.98,18.35,7.678,24.249,14.797,5.882,7.099,5.578,18.695,10.185,26.767,4.564,7.996,14.648,13.504,17.807,22.3,3.104,8.642-1.1,19.42.501,28.685,1.557,9.01,9.168,17.681,9.168,27.144Z"/><polyline class="cls-1" points="291.48 306.04 329 371 262.99 368.69 231.98 427 191.52 357"/><polyline class="cls-1" points="44.52 306.04 7 371 73.01 368.69 104.02 427 144.48 357"/></g></svg>