<?xml version="1.0" encoding="UTF-8"?><svg id="Layer_2" xmlns="http://www.w3.org/2000/svg" viewBox="0 0 448.002 420"><defs><style>.cls-1{fill:none;stroke:#222831;stroke-linecap:round;stroke-linejoin:round;stroke-width:14px;}</style></defs><g id="Preview"><circle class="cls-1" cx="224.001" cy="70" r="63"/><polyline class="cls-1" points="196.001 66.5 217.001 87.5 252.001 52.5"/><path class="cls-1" d="m165.622,406.404h0c-6.416-7.811-5.419-19.457,2.228-26.011l19.382-16.615c7.646-6.554,19.045-5.535,25.461,2.276h0c6.416,7.811,5.418,19.457-2.228,26.011l-19.382,16.615c-7.646,6.555-19.045,5.536-25.461-2.276Z"/><path class="cls-1" d="m142.388,378.117h0c-6.416-7.811-5.418-19.457,2.228-26.011l30.458-26.11c7.646-6.554,19.045-5.535,25.461,2.276h0c6.416,7.811,5.418,19.457-2.228,26.012l-30.457,26.109c-7.647,6.554-19.046,5.535-25.462-2.276Z"/><path class="cls-1" d="m119.155,349.83h0c-6.416-7.811-5.418-19.458,2.228-26.012l30.457-26.109c7.647-6.554,19.046-5.535,25.461,2.276h0c6.416,7.811,5.418,19.457-2.227,26.011l-30.458,26.11c-7.646,6.554-19.045,5.535-25.461-2.276Z"/><path class="cls-1" d="m95.922,321.542h0c-6.416-7.811-5.419-19.457,2.227-26.011l19.382-16.615c7.646-6.554,19.045-5.535,25.461,2.276h0c6.416,7.811,5.418,19.457-2.227,26.011l-19.382,16.615c-7.646,6.554-19.045,5.535-25.461-2.276Z"/><path class="cls-1" d="m346.091,184.879c-8.095,1.856-17.63,2.132-22.851.638-10.207-2.92-10.885-2.361-20.444-7.128l-23.179-12.416c-4.561-2.443-9.679-3.598-14.823-3.344l-40.785,2.011c-5.863.289-11.361,2.994-15.238,7.496l-42.385,49.223c-5.629,5.237-6.036,14.145-.91,19.896h0c11.003,12.343,29.717,13.236,41.798,1.996l22.508-20.832c2.405-2.226,4.007-5.214,4.548-8.483l1.028-6.21"/><path class="cls-1" d="m403.755,304.903l28.034-10.424c7.263-2.701,11.008-10.9,8.366-18.317l-39.878-111.932c-2.644-7.421-10.68-11.247-17.947-8.545l-28.034,10.424c-7.263,2.701-11.008,10.901-8.366,18.317l39.877,111.932c2.644,7.421,10.68,11.247,17.948,8.545Z"/><line class="cls-1" x1="385.641" y1="295.944" x2="350.219" y2="317.804"/><path class="cls-1" d="m44.247,297.085l-28.034-10.424c-7.263-2.701-11.008-10.9-8.366-18.317l39.878-111.932c2.644-7.421,10.68-11.247,17.947-8.545l28.034,10.424c7.263,2.701,11.008,10.9,8.366,18.317l-39.877,111.932c-2.644,7.421-10.68,11.247-17.948,8.545Z"/><path class="cls-1" d="m101.911,177.06s36.462,12.853,64.258-.389"/><path class="cls-1" d="m257.833,233.169l86.242,73.853c7.663,6.573,8.675,18.242,2.241,25.996-3.614,4.357-8.747,6.647-13.88,6.647-4.12,0-8.241-1.477-11.566-4.357l-24.94-21.343"/><path class="cls-1" d="m295.921,313.962l19.382,16.615c7.646,6.554,8.643,18.2,2.228,26.011h0c-6.416,7.811-17.815,8.83-25.461,2.276l-24.92-21.362"/><path class="cls-1" d="m267.149,337.502l19.382,16.615c7.646,6.555,8.643,18.2,2.228,26.012h0c-6.416,7.811-17.815,8.83-25.461,2.276l-24.92-21.362"/><path class="cls-1" d="m236.218,407.092c3.036,2.142,6.506,3.176,9.904,3.176,5.205,0,10.265-2.29,13.88-6.573,6.434-7.828,5.422-19.497-2.241-26.07l-13.446-11.521-5.928-5.096"/><line class="cls-1" x1="93.301" y1="301.999" x2="62.362" y2="288.115"/></g></svg>