<?xml version="1.0" encoding="UTF-8"?><svg id="Layer_2" xmlns="http://www.w3.org/2000/svg" viewBox="0 0 336 434"><defs><style>.cls-1{fill:none;stroke:#222831;stroke-linecap:round;stroke-linejoin:round;stroke-width:14px;}</style></defs><g id="Preview"><path class="cls-1" d="m161.931,425.583c3.856,1.889,8.282,1.889,12.138,0,29.323-14.364,154.931-80.411,154.931-157.86V87.733c0-6.163-3.932-11.593-9.753-13.46-22.438-7.197-80.685-27.762-144.112-65.318-4.403-2.607-9.867-2.607-14.27,0C97.438,46.511,39.191,67.076,16.753,74.273c-5.82,1.867-9.753,7.297-9.753,13.46v179.99c0,77.449,125.608,143.496,154.931,157.86Z"/><circle class="cls-1" cx="168" cy="217" r="98"/><polyline class="cls-1" points="133 217 161 245 217 189"/></g></svg>