<?xml version="1.0" encoding="UTF-8"?><svg id="b" xmlns="http://www.w3.org/2000/svg" viewBox="0 0 809.44 373.34"><g id="c"><path d="m385.5,368.61v4.73h-3.73v-4.79l-5.03-8.41h3.94l3.13,5.24,3.13-5.24h3.62l-5.05,8.46Z" fill="#34110b" stroke-width="0"/><path d="m402.21,370.46v2.88h-10.59v-13.19h10.35v2.88h-6.65v2.22h5.86v2.79h-5.86v2.41h6.9Z" fill="#34110b" stroke-width="0"/><path d="m413.48,370.78h-5.58l-1.04,2.56h-3.81l5.82-13.19h3.67l5.84,13.19h-3.88l-1.04-2.56Zm-1.09-2.75l-1.7-4.22-1.7,4.22h3.39Z" fill="#34110b" stroke-width="0"/><path d="m425.3,369.84h-2.04v3.5h-3.73v-13.19h6.03c3.6,0,5.86,1.87,5.86,4.88,0,1.94-.94,3.37-2.58,4.17l2.85,4.15h-4l-2.39-3.5Zm.04-6.75h-2.07v3.86h2.07c1.55,0,2.32-.72,2.32-1.92s-.77-1.94-2.32-1.94Z" fill="#34110b" stroke-width="0"/><path d="m14.26,255.67l-2.75-1.23c.77-1.17,1.3-2.83,1.3-4.35s-.43-2.15-1.07-2.15c-2.09,0-.57,7.5-5.47,7.5-2.36,0-4.28-1.92-4.28-5.84,0-1.71.4-3.49,1.15-4.79l2.77,1.15c-.68,1.26-1.02,2.51-1.02,3.66,0,1.56.53,2.13,1.19,2.13,2.02,0,.51-7.48,5.37-7.48,2.3,0,4.26,1.92,4.26,5.84,0,2.17-.58,4.32-1.45,5.56Z" fill="#34110b" stroke-width="0"/><path d="m12.89,233.81v5.58l2.56,1.04v3.81l-13.19-5.82v-3.67l13.19-5.84v3.88l-2.56,1.04Zm-2.75,1.09l-4.22,1.7,4.22,1.7v-3.39Z" fill="#34110b" stroke-width="0"/><path d="m2.26,227.76v-3.73h10.23v-6.29h2.96v10.03H2.26Z" fill="#34110b" stroke-width="0"/><path d="m12.57,205.82h2.88v10.59H2.26v-10.35h2.88v6.65h2.22v-5.86h2.79v5.86h2.41v-6.9Z" fill="#34110b" stroke-width="0"/><path d="m14.26,204.44l-2.75-1.23c.77-1.17,1.3-2.83,1.3-4.35s-.43-2.15-1.07-2.15c-2.09,0-.57,7.5-5.47,7.5-2.36,0-4.28-1.92-4.28-5.84,0-1.71.4-3.49,1.15-4.79l2.77,1.15c-.68,1.26-1.02,2.51-1.02,3.66,0,1.56.53,2.13,1.19,2.13,2.02,0,.51-7.48,5.37-7.48,2.3,0,4.26,1.92,4.26,5.84,0,2.17-.58,4.32-1.45,5.56Z" fill="#34110b" stroke-width="0"/><path d="m10.29,186.03c-3.45,0-6.56-.87-8.82-2.43v-3.43c2.92,1.66,5.71,2.36,8.82,2.36s5.9-.7,8.82-2.36v3.43c-2.26,1.56-5.37,2.43-8.82,2.43Z" fill="#34110b" stroke-width="0"/><path d="m15.62,172.91h2.09v2.26h-2.02c-.13,1.88-.68,3.67-1.43,4.77l-2.75-1.23c.77-1.17,1.3-2.83,1.3-4.35s-.43-2.15-1.07-2.15c-2.09,0-.57,7.5-5.47,7.5-2.07,0-3.83-1.49-4.2-4.54H0v-2.26h2.04c.11-1.39.49-2.77,1.11-3.83l2.77,1.15c-.68,1.26-1.02,2.51-1.02,3.66,0,1.56.53,2.13,1.19,2.13,2.02,0,.51-7.48,5.37-7.48,2,0,3.73,1.43,4.17,4.37Z" fill="#34110b" stroke-width="0"/><path d="m15.45,154.7l-6.99.04,5.69,3.39v1.66l-5.5,3.37h6.8v3.45H2.26v-3.07l7.61-4.64-7.61-4.52v-3.07l13.19-.04v3.43Z" fill="#34110b" stroke-width="0"/><path d="m9.57,143.27H2.26v-3.73h7.2c2.26,0,3.17-.94,3.17-2.51s-.9-2.49-3.17-2.49H2.26v-3.67h7.31c3.94,0,6.14,2.3,6.14,6.2s-2.21,6.2-6.14,6.2Z" fill="#34110b" stroke-width="0"/><path d="m14.26,129.21l-2.75-1.23c.77-1.17,1.3-2.83,1.3-4.35s-.43-2.15-1.07-2.15c-2.09,0-.57,7.5-5.47,7.5-2.36,0-4.28-1.92-4.28-5.84,0-1.71.4-3.49,1.15-4.79l2.77,1.15c-.68,1.26-1.02,2.51-1.02,3.66,0,1.56.53,2.13,1.19,2.13,2.02,0,.51-7.48,5.37-7.48,2.3,0,4.26,1.92,4.26,5.84,0,2.17-.58,4.32-1.45,5.56Z" fill="#34110b" stroke-width="0"/><path d="m2.26,115.88v-6.24c0-4.37,2.54-7.37,6.6-7.37s6.6,3,6.6,7.37v6.24H2.26Zm10.21-6.09c0-2.24-1.34-3.75-3.62-3.75s-3.62,1.51-3.62,3.75v2.36h7.24v-2.36Z" fill="#34110b" stroke-width="0"/><path d="m19.11,102.03c-2.92-1.66-5.71-2.36-8.82-2.36s-5.9.7-8.82,2.36v-3.43c2.26-1.56,5.37-2.43,8.82-2.43s6.56.87,8.82,2.43v3.43Z" fill="#34110b" stroke-width="0"/><path d="m168.01,333.36v1.73h-8.1v-1.37l4.36-4.14c1.07-1.02,1.26-1.67,1.26-2.28,0-1-.69-1.59-2.04-1.59-1.07,0-1.96.36-2.58,1.15l-1.43-1.1c.85-1.15,2.37-1.82,4.18-1.82,2.39,0,3.93,1.21,3.93,3.16,0,1.07-.3,2.04-1.82,3.47l-2.94,2.79h5.18Z" fill="#34110b" stroke-width="0"/><path d="m169.14,329.6c0-3.61,1.98-5.65,4.58-5.65s4.6,2.04,4.6,5.65-1.98,5.65-4.6,5.65-4.58-2.04-4.58-5.65Zm7.13,0c0-2.65-1.04-3.88-2.54-3.88s-2.53,1.22-2.53,3.88,1.04,3.88,2.53,3.88,2.54-1.22,2.54-3.88Z" fill="#34110b" stroke-width="0"/><path d="m183.43,324.1v10.99h-2.04v-9.28h-2.32v-1.71h4.36Z" fill="#34110b" stroke-width="0"/><path d="m194.39,331.68c0,2.18-1.77,3.56-4.02,3.56-3,0-4.76-1.93-4.76-5.46,0-3.77,2.2-5.84,5.39-5.84,1.1,0,2.15.24,2.89.71l-.75,1.54c-.6-.39-1.32-.53-2.09-.53-2.07,0-3.38,1.29-3.38,3.78v.02c.66-.77,1.71-1.15,2.94-1.15,2.17,0,3.78,1.32,3.78,3.38Zm-1.98.09c0-1.15-.86-1.87-2.2-1.87s-2.23.8-2.23,1.88.82,1.85,2.28,1.85c1.27,0,2.15-.72,2.15-1.87Z" fill="#34110b" stroke-width="0"/><path d="m46.71,290.61c0-3.61,1.98-5.65,4.58-5.65s4.6,2.04,4.6,5.65-1.98,5.65-4.6,5.65-4.58-2.04-4.58-5.65Zm7.13,0c0-2.65-1.04-3.88-2.54-3.88s-2.53,1.22-2.53,3.88,1.04,3.88,2.53,3.88,2.54-1.22,2.54-3.88Z" fill="#34110b" stroke-width="0"/><path d="m36.63,4.73v10.99h-2.04V6.44h-2.32v-1.71h4.36Z" fill="#34110b" stroke-width="0"/><path d="m47.1,4.73v1.37l-4.27,9.62h-2.18l4.13-9.26h-4.32v1.87h-1.9v-3.6h8.54Z" fill="#34110b" stroke-width="0"/><path d="m56.07,12.34c0,1.93-1.4,3.53-4.35,3.53-1.55,0-3.12-.47-4.13-1.27l.86-1.58c.8.66,1.99,1.08,3.23,1.08,1.46,0,2.32-.64,2.32-1.68s-.67-1.71-2.95-1.71h-2.65l.57-5.98h6.45v1.71h-4.73l-.24,2.54h1.05c3.25,0,4.55,1.41,4.55,3.36Z" fill="#34110b" stroke-width="0"/><path d="m165.23,10.05c0,1.93-1.43,3.13-3.74,3.13h-1.98v2.54h-1.63V6.93h3.62c2.31,0,3.74,1.18,3.74,3.13Zm-1.64,0c0-1.1-.74-1.75-2.17-1.75h-1.91v3.49h1.91c1.43,0,2.17-.64,2.17-1.75Z" fill="#34110b" stroke-width="0"/><path d="m170.53,8.94v1.49c-.14-.03-.25-.04-.36-.04-1.19,0-1.95.7-1.95,2.07v3.25h-1.57v-6.71h1.5v.98c.45-.7,1.27-1.05,2.39-1.05Z" fill="#34110b" stroke-width="0"/><path d="m171.25,12.36c0-2.01,1.51-3.43,3.57-3.43s3.58,1.42,3.58,3.43-1.5,3.44-3.58,3.44-3.57-1.43-3.57-3.44Zm5.56,0c0-1.28-.85-2.1-2-2.1s-1.98.82-1.98,2.1.85,2.1,1.98,2.1,2-.82,2-2.1Z" fill="#34110b" stroke-width="0"/><path d="m187.02,12.36c0,2.08-1.44,3.44-3.4,3.44-.85,0-1.61-.29-2.15-.9v3.25h-1.57v-9.14h1.5v.88c.53-.64,1.31-.95,2.22-.95,1.96,0,3.4,1.36,3.4,3.43Zm-1.59,0c0-1.28-.85-2.1-1.98-2.1s-2,.82-2,2.1.87,2.1,2,2.1,1.98-.82,1.98-2.1Z" fill="#34110b" stroke-width="0"/><path d="m194.8,12.87h-5.26c.19.98,1,1.61,2.17,1.61.75,0,1.34-.24,1.82-.73l.84.97c-.6.72-1.54,1.09-2.7,1.09-2.25,0-3.7-1.44-3.7-3.44s1.47-3.43,3.47-3.43,3.39,1.37,3.39,3.47c0,.13-.01.31-.03.46Zm-5.27-1.04h3.81c-.13-.97-.87-1.63-1.9-1.63s-1.76.65-1.91,1.63Z" fill="#34110b" stroke-width="0"/><path d="m200.21,8.94v1.49c-.14-.03-.25-.04-.36-.04-1.19,0-1.95.7-1.95,2.07v3.25h-1.57v-6.71h1.5v.98c.45-.7,1.27-1.05,2.39-1.05Z" fill="#34110b" stroke-width="0"/><path d="m205.83,15.35c-.38.3-.94.45-1.51.45-1.47,0-2.31-.78-2.31-2.26v-3.23h-1.11v-1.25h1.11v-1.53h1.57v1.53h1.8v1.25h-1.8v3.19c0,.65.33,1,.93,1,.33,0,.64-.09.88-.28l.44,1.12Z" fill="#34110b" stroke-width="0"/><path d="m213.28,9.01l-3.14,7.25c-.62,1.52-1.47,1.98-2.59,1.98-.67,0-1.37-.23-1.8-.62l.63-1.16c.3.29.73.46,1.16.46.55,0,.88-.26,1.18-.93l.11-.26-2.93-6.73h1.63l2.11,4.96,2.12-4.96h1.51Z" fill="#34110b" stroke-width="0"/><path d="m219.66,8.31h-2.91v-1.38h7.46v1.38h-2.91v7.41h-1.63v-7.41Z" fill="#34110b" stroke-width="0"/><path d="m231.61,9.01v6.71h-1.49v-.85c-.5.62-1.29.94-2.16.94-1.72,0-2.89-.94-2.89-2.96v-3.83h1.57v3.62c0,1.22.58,1.79,1.57,1.79,1.09,0,1.83-.68,1.83-2.02v-3.39h1.57Z" fill="#34110b" stroke-width="0"/><path d="m237.56,8.94v1.49c-.14-.03-.25-.04-.36-.04-1.19,0-1.95.7-1.95,2.07v3.25h-1.57v-6.71h1.5v.98c.45-.7,1.27-1.05,2.39-1.05Z" fill="#34110b" stroke-width="0"/><path d="m241.63,12.84l-1.17,1.11v1.77h-1.57V6.4h1.57v5.63l3.25-3.01h1.88l-2.8,2.81,3.06,3.89h-1.91l-2.32-2.88Z" fill="#34110b" stroke-width="0"/><path d="m252.88,12.87h-5.26c.19.98,1,1.61,2.17,1.61.75,0,1.34-.24,1.82-.73l.84.97c-.6.72-1.54,1.09-2.7,1.09-2.25,0-3.7-1.44-3.7-3.44s1.47-3.43,3.47-3.43,3.39,1.37,3.39,3.47c0,.13-.01.31-.03.46Zm-5.27-1.04h3.81c-.13-.97-.87-1.63-1.9-1.63s-1.76.65-1.91,1.63Z" fill="#34110b" stroke-width="0"/><path d="m260.57,9.01l-3.14,7.25c-.62,1.52-1.47,1.98-2.59,1.98-.67,0-1.37-.23-1.8-.62l.63-1.16c.3.29.73.46,1.16.46.55,0,.88-.26,1.18-.93l.11-.26-2.93-6.73h1.63l2.11,4.96,2.12-4.96h1.51Z" fill="#34110b" stroke-width="0"/><path d="m264.43,14.79l.57-1.27c.7.56,1.82.97,2.9.97,1.37,0,1.95-.49,1.95-1.14,0-1.9-5.22-.65-5.22-3.92,0-1.42,1.13-2.62,3.54-2.62,1.05,0,2.16.28,2.93.78l-.52,1.27c-.79-.46-1.66-.69-2.42-.69-1.36,0-1.91.53-1.91,1.19,0,1.87,5.21.65,5.21,3.88,0,1.41-1.14,2.61-3.55,2.61-1.37,0-2.74-.43-3.47-1.06Z" fill="#34110b" stroke-width="0"/><path d="m278.53,11.79v3.93h-1.48v-.82c-.38.58-1.1.9-2.11.9-1.53,0-2.5-.84-2.5-2.01s.75-2,2.79-2h1.73v-.1c0-.92-.55-1.46-1.67-1.46-.75,0-1.53.25-2.03.67l-.62-1.14c.72-.55,1.76-.83,2.84-.83,1.93,0,3.05.92,3.05,2.85Zm-1.57,1.83v-.78h-1.62c-1.07,0-1.36.4-1.36.89,0,.57.48.93,1.28.93s1.43-.35,1.7-1.04Z" fill="#34110b" stroke-width="0"/><path d="m280.54,6.4h1.57v9.32h-1.57V6.4Z" fill="#34110b" stroke-width="0"/><path d="m290.45,12.87h-5.26c.19.98,1,1.61,2.17,1.61.75,0,1.34-.24,1.82-.73l.84.97c-.6.72-1.54,1.09-2.7,1.09-2.25,0-3.7-1.44-3.7-3.44s1.47-3.43,3.47-3.43,3.39,1.37,3.39,3.47c0,.13-.01.31-.03.46Zm-5.27-1.04h3.81c-.13-.97-.87-1.63-1.9-1.63s-1.76.65-1.91,1.63Z" fill="#34110b" stroke-width="0"/><path d="m291.22,15.05l.6-1.19c.59.39,1.5.67,2.34.67.99,0,1.41-.28,1.41-.74,0-1.28-4.14-.08-4.14-2.75,0-1.27,1.14-2.1,2.95-2.1.89,0,1.91.21,2.51.58l-.6,1.19c-.64-.38-1.28-.5-1.92-.5-.95,0-1.41.31-1.41.75,0,1.36,4.14.15,4.14,2.78,0,1.26-1.16,2.07-3.04,2.07-1.12,0-2.24-.33-2.84-.75Z" fill="#34110b" stroke-width="0"/><path d="m157.07,74.34l.57-1.27c.7.56,1.82.97,2.9.97,1.37,0,1.95-.49,1.95-1.14,0-1.9-5.22-.65-5.22-3.92,0-1.42,1.13-2.62,3.54-2.62,1.05,0,2.16.28,2.93.78l-.52,1.27c-.79-.46-1.66-.69-2.42-.69-1.36,0-1.91.53-1.91,1.19,0,1.87,5.21.65,5.21,3.88,0,1.41-1.14,2.61-3.55,2.61-1.37,0-2.74-.43-3.47-1.06Z" fill="#34110b" stroke-width="0"/><path d="m172.17,71.43v3.84h-1.57v-3.64c0-1.19-.59-1.77-1.59-1.77-1.12,0-1.87.68-1.87,2.02v3.39h-1.57v-9.32h1.57v3.39c.51-.55,1.31-.85,2.24-.85,1.61,0,2.8.92,2.8,2.94Z" fill="#34110b" stroke-width="0"/><path d="m179.78,71.34v3.93h-1.48v-.82c-.38.58-1.1.9-2.11.9-1.53,0-2.5-.84-2.5-2.01s.75-2,2.79-2h1.73v-.1c0-.92-.55-1.46-1.67-1.46-.75,0-1.53.25-2.03.67l-.62-1.14c.72-.55,1.76-.83,2.84-.83,1.93,0,3.05.92,3.05,2.85Zm-1.57,1.83v-.78h-1.62c-1.07,0-1.36.4-1.36.89,0,.57.48.93,1.28.93s1.43-.35,1.7-1.04Z" fill="#34110b" stroke-width="0"/><path d="m185.67,68.49v1.49c-.14-.03-.25-.04-.36-.04-1.19,0-1.95.7-1.95,2.07v3.25h-1.57v-6.71h1.5v.98c.45-.7,1.27-1.05,2.39-1.05Z" fill="#34110b" stroke-width="0"/><path d="m193.22,72.42h-5.26c.19.98,1,1.61,2.17,1.61.75,0,1.34-.24,1.82-.73l.84.97c-.6.72-1.54,1.09-2.7,1.09-2.25,0-3.7-1.44-3.7-3.44s1.47-3.43,3.47-3.43,3.39,1.37,3.39,3.47c0,.13-.01.31-.03.46Zm-5.27-1.04h3.81c-.13-.97-.87-1.63-1.9-1.63s-1.76.65-1.91,1.63Z" fill="#34110b" stroke-width="0"/><path d="m201.33,65.95v9.32h-1.51v-.87c-.53.64-1.31.95-2.22.95-1.95,0-3.39-1.36-3.39-3.44s1.44-3.43,3.39-3.43c.87,0,1.63.29,2.16.9v-3.44h1.57Zm-1.54,5.97c0-1.28-.87-2.1-2-2.1s-2,.82-2,2.1.87,2.1,2,2.1,2-.82,2-2.1Z" fill="#34110b" stroke-width="0"/><path d="m206.26,74.34l.57-1.27c.7.56,1.82.97,2.9.97,1.37,0,1.95-.49,1.95-1.14,0-1.9-5.22-.65-5.22-3.92,0-1.42,1.13-2.62,3.54-2.62,1.06,0,2.16.28,2.93.78l-.52,1.27c-.79-.46-1.66-.69-2.42-.69-1.36,0-1.91.53-1.91,1.19,0,1.87,5.21.65,5.21,3.88,0,1.41-1.14,2.61-3.55,2.61-1.37,0-2.74-.43-3.47-1.06Z" fill="#34110b" stroke-width="0"/><path d="m220.37,71.34v3.93h-1.48v-.82c-.38.58-1.1.9-2.11.9-1.53,0-2.5-.84-2.5-2.01s.75-2,2.79-2h1.73v-.1c0-.92-.55-1.46-1.67-1.46-.75,0-1.53.25-2.03.67l-.62-1.14c.72-.55,1.76-.83,2.84-.83,1.93,0,3.05.92,3.05,2.85Zm-1.57,1.83v-.78h-1.62c-1.07,0-1.36.4-1.36.89,0,.57.48.93,1.28.93s1.43-.35,1.7-1.04Z" fill="#34110b" stroke-width="0"/><path d="m222.38,65.95h1.57v9.32h-1.57v-9.32Z" fill="#34110b" stroke-width="0"/><path d="m232.29,72.42h-5.26c.19.98,1,1.61,2.17,1.61.75,0,1.34-.24,1.82-.73l.84.97c-.6.72-1.54,1.09-2.7,1.09-2.25,0-3.7-1.44-3.7-3.44s1.47-3.43,3.47-3.43,3.39,1.37,3.39,3.47c0,.13-.01.31-.03.46Zm-5.27-1.04h3.81c-.13-.97-.87-1.63-1.9-1.63s-1.76.65-1.91,1.63Z" fill="#34110b" stroke-width="0"/><path d="m233.06,74.61l.6-1.19c.59.39,1.5.67,2.34.67.99,0,1.41-.28,1.41-.74,0-1.28-4.14-.08-4.14-2.75,0-1.27,1.14-2.1,2.95-2.1.89,0,1.91.21,2.51.58l-.6,1.19c-.64-.38-1.28-.5-1.92-.5-.95,0-1.41.31-1.41.75,0,1.36,4.14.15,4.14,2.78,0,1.26-1.16,2.07-3.04,2.07-1.12,0-2.24-.33-2.84-.75Z" fill="#34110b" stroke-width="0"/><path d="m245.69,67.86h-2.91v-1.38h7.46v1.38h-2.91v7.41h-1.63v-7.41Z" fill="#34110b" stroke-width="0"/><path d="m257.92,71.43v3.84h-1.57v-3.64c0-1.19-.59-1.77-1.59-1.77-1.12,0-1.87.68-1.87,2.02v3.39h-1.57v-9.32h1.57v3.39c.51-.55,1.31-.85,2.24-.85,1.61,0,2.8.92,2.8,2.94Z" fill="#34110b" stroke-width="0"/><path d="m263.8,68.49v1.49c-.14-.03-.25-.04-.36-.04-1.19,0-1.95.7-1.95,2.07v3.25h-1.57v-6.71h1.5v.98c.45-.7,1.27-1.05,2.39-1.05Z" fill="#34110b" stroke-width="0"/><path d="m264.52,71.92c0-2.01,1.51-3.43,3.57-3.43s3.58,1.42,3.58,3.43-1.5,3.44-3.58,3.44-3.57-1.43-3.57-3.44Zm5.56,0c0-1.28-.85-2.1-2-2.1s-1.98.82-1.98,2.1.85,2.1,1.98,2.1,2-.82,2-2.1Z" fill="#34110b" stroke-width="0"/><path d="m279.67,68.57v6.71h-1.49v-.85c-.5.62-1.29.94-2.16.94-1.72,0-2.89-.94-2.89-2.96v-3.83h1.57v3.62c0,1.22.58,1.79,1.57,1.79,1.09,0,1.83-.68,1.83-2.02v-3.39h1.57Z" fill="#34110b" stroke-width="0"/><path d="m288.38,68.57v5.69c0,2.44-1.27,3.54-3.62,3.54-1.25,0-2.5-.33-3.26-.96l.7-1.18c.59.49,1.54.8,2.47.8,1.48,0,2.14-.68,2.14-2.04v-.35c-.55.6-1.34.89-2.25.89-1.92,0-3.39-1.31-3.39-3.25s1.47-3.23,3.39-3.23c.94,0,1.77.3,2.32.97v-.89h1.49Zm-1.54,3.15c0-1.13-.85-1.9-2.03-1.9s-2.05.77-2.05,1.9.85,1.92,2.05,1.92,2.03-.78,2.03-1.92Z" fill="#34110b" stroke-width="0"/><path d="m297.05,71.43v3.84h-1.57v-3.64c0-1.19-.59-1.77-1.59-1.77-1.12,0-1.87.68-1.87,2.02v3.39h-1.57v-9.32h1.57v3.39c.51-.55,1.31-.85,2.24-.85,1.61,0,2.8.92,2.8,2.94Z" fill="#34110b" stroke-width="0"/><path d="m165.89,90.34v-5.83s-2.9,4.82-2.9,4.82h-.73l-2.89-4.75v5.75h-1.56v-8.79h1.34l3.49,5.83,3.43-5.83h1.34v8.79s-1.53,0-1.53,0Z" fill="#34110b" stroke-width="0"/><path d="m175.27,86.41v3.93h-1.48v-.82c-.38.58-1.1.9-2.11.9-1.53,0-2.5-.84-2.5-2.01s.75-2,2.79-2h1.73v-.1c0-.92-.55-1.46-1.67-1.46-.75,0-1.53.25-2.03.67l-.62-1.14c.72-.55,1.76-.83,2.84-.83,1.93,0,3.05.92,3.05,2.85Zm-1.57,1.83v-.78h-1.62c-1.07,0-1.36.4-1.36.89,0,.57.48.93,1.28.93s1.43-.35,1.7-1.04Z" fill="#34110b" stroke-width="0"/><path d="m181.17,83.56v1.49c-.14-.03-.25-.04-.36-.04-1.19,0-1.95.7-1.95,2.07v3.25h-1.57v-6.71h1.5v.98c.45-.7,1.27-1.05,2.39-1.05Z" fill="#34110b" stroke-width="0"/><path d="m185.24,87.47l-1.17,1.11v1.77h-1.57v-9.32h1.57v5.63l3.25-3.01h1.88l-2.8,2.81,3.06,3.89h-1.91l-2.32-2.88Z" fill="#34110b" stroke-width="0"/><path d="m196.49,87.49h-5.26c.19.98,1,1.61,2.17,1.61.75,0,1.34-.24,1.82-.73l.84.97c-.6.72-1.54,1.09-2.7,1.09-2.25,0-3.7-1.44-3.7-3.44s1.47-3.43,3.47-3.43,3.39,1.37,3.39,3.47c0,.13-.01.31-.03.46Zm-5.27-1.04h3.81c-.13-.97-.87-1.63-1.9-1.63s-1.76.65-1.91,1.63Z" fill="#34110b" stroke-width="0"/><path d="m202.05,89.98c-.38.3-.94.45-1.51.45-1.47,0-2.31-.78-2.31-2.26v-3.23h-1.11v-1.25h1.11v-1.53h1.57v1.53h1.8v1.25h-1.8v3.19c0,.65.33,1,.93,1,.33,0,.64-.09.88-.28l.44,1.12Z" fill="#34110b" stroke-width="0"/><path d="m209.4,87.49h-5.26c.19.98,1,1.61,2.17,1.61.75,0,1.34-.24,1.82-.73l.84.97c-.6.72-1.54,1.09-2.7,1.09-2.25,0-3.7-1.44-3.7-3.44s1.47-3.43,3.47-3.43,3.39,1.37,3.39,3.47c0,.13-.01.31-.03.46Zm-5.27-1.04h3.81c-.13-.97-.87-1.63-1.9-1.63s-1.76.65-1.91,1.63Z" fill="#34110b" stroke-width="0"/><path d="m217.5,81.03v9.32h-1.51v-.87c-.53.64-1.31.95-2.22.95-1.95,0-3.39-1.36-3.39-3.44s1.44-3.43,3.39-3.43c.87,0,1.63.29,2.16.9v-3.44h1.57Zm-1.54,5.97c0-1.28-.87-2.1-2-2.1s-2,.82-2,2.1.87,2.1,2,2.1,2-.82,2-2.1Z" fill="#34110b" stroke-width="0"/><path d="m230.54,84.68c0,1.93-1.43,3.13-3.74,3.13h-1.98v2.54h-1.63v-8.79h3.62c2.31,0,3.74,1.18,3.74,3.13Zm-1.64,0c0-1.1-.74-1.75-2.17-1.75h-1.91v3.49h1.91c1.43,0,2.17-.64,2.17-1.75Z" fill="#34110b" stroke-width="0"/><path d="m235.84,83.56v1.49c-.14-.03-.25-.04-.36-.04-1.19,0-1.95.7-1.95,2.07v3.25h-1.57v-6.71h1.5v.98c.45-.7,1.27-1.05,2.39-1.05Z" fill="#34110b" stroke-width="0"/><path d="m236.56,86.99c0-2.01,1.51-3.43,3.57-3.43s3.58,1.42,3.58,3.43-1.5,3.44-3.58,3.44-3.57-1.43-3.57-3.44Zm5.56,0c0-1.28-.85-2.1-2-2.1s-1.98.82-1.98,2.1.85,2.1,1.98,2.1,2-.82,2-2.1Z" fill="#34110b" stroke-width="0"/><path d="m243.02,92.48l.45-1.17c.24.18.57.26.92.26.58,0,.9-.35.9-1.07v-6.87h1.57v6.83c0,1.47-.84,2.4-2.34,2.4-.58,0-1.14-.11-1.51-.39Zm2.05-10.89c0-.53.43-.94,1-.94s1,.39,1,.9c0,.55-.42.98-1,.98s-1-.41-1-.94Z" fill="#34110b" stroke-width="0"/><path d="m255.2,87.49h-5.26c.19.98,1,1.61,2.17,1.61.75,0,1.34-.24,1.82-.73l.84.97c-.6.72-1.54,1.09-2.7,1.09-2.25,0-3.7-1.44-3.7-3.44s1.47-3.43,3.47-3.43,3.39,1.37,3.39,3.47c0,.13-.01.31-.03.46Zm-5.27-1.04h3.81c-.13-.97-.87-1.63-1.9-1.63s-1.76.65-1.91,1.63Z" fill="#34110b" stroke-width="0"/><path d="m256.18,86.99c0-2.01,1.51-3.43,3.63-3.43,1.31,0,2.35.54,2.86,1.56l-1.21.7c-.4-.64-1-.93-1.67-.93-1.16,0-2.03.8-2.03,2.1s.88,2.1,2.03,2.1c.67,0,1.27-.29,1.67-.93l1.21.7c-.51,1-1.56,1.57-2.86,1.57-2.12,0-3.63-1.43-3.63-3.44Z" fill="#34110b" stroke-width="0"/><path d="m268.15,89.98c-.38.3-.94.45-1.51.45-1.47,0-2.31-.78-2.31-2.26v-3.23h-1.11v-1.25h1.11v-1.53h1.57v1.53h1.8v1.25h-1.8v3.19c0,.65.33,1,.93,1,.33,0,.64-.09.88-.28l.44,1.12Z" fill="#34110b" stroke-width="0"/><path d="m268.68,89.68l.6-1.19c.59.39,1.5.67,2.34.67.99,0,1.41-.28,1.41-.74,0-1.28-4.14-.08-4.14-2.75,0-1.27,1.14-2.1,2.95-2.1.89,0,1.91.21,2.51.58l-.6,1.19c-.64-.38-1.28-.5-1.92-.5-.95,0-1.41.31-1.41.75,0,1.36,4.14.15,4.14,2.78,0,1.26-1.16,2.07-3.04,2.07-1.12,0-2.24-.33-2.84-.75Z" fill="#34110b" stroke-width="0"/><path d="m165.23,43.17c0,1.93-1.43,3.13-3.74,3.13h-1.98v2.54h-1.63v-8.79h3.62c2.31,0,3.74,1.18,3.74,3.13Zm-1.64,0c0-1.1-.74-1.75-2.17-1.75h-1.91v3.49h1.91c1.43,0,2.17-.64,2.17-1.75Z" fill="#34110b" stroke-width="0"/><path d="m168.4,41.42h-2.91v-1.38h7.46v1.38h-2.91v7.41h-1.63v-7.41Z" fill="#34110b" stroke-width="0"/><path d="m185,43.17c0,1.93-1.43,3.13-3.74,3.13h-1.98v2.54h-1.63v-8.79h3.62c2.31,0,3.74,1.18,3.74,3.13Zm-1.64,0c0-1.1-.74-1.75-2.17-1.75h-1.91v3.49h1.91c1.43,0,2.17-.64,2.17-1.75Z" fill="#34110b" stroke-width="0"/><path d="m190.3,42.05v1.49c-.14-.03-.25-.04-.36-.04-1.19,0-1.95.7-1.95,2.07v3.25h-1.57v-6.71h1.5v.98c.45-.7,1.27-1.05,2.39-1.05Z" fill="#34110b" stroke-width="0"/><path d="m191.02,45.48c0-2.01,1.51-3.43,3.57-3.43s3.58,1.42,3.58,3.43-1.5,3.44-3.58,3.44-3.57-1.43-3.57-3.44Zm5.56,0c0-1.28-.85-2.1-2-2.1s-1.98.82-1.98,2.1.85,2.1,1.98,2.1,2-.82,2-2.1Z" fill="#34110b" stroke-width="0"/><path d="m197.48,50.97l.45-1.17c.24.18.57.26.92.26.58,0,.9-.35.9-1.07v-6.87h1.57v6.83c0,1.47-.84,2.4-2.34,2.4-.58,0-1.14-.11-1.51-.39Zm2.05-10.89c0-.53.43-.94,1-.94s1,.39,1,.9c0,.55-.42.98-1,.98s-1-.41-1-.94Z" fill="#34110b" stroke-width="0"/><path d="m209.66,45.98h-5.26c.19.98,1,1.61,2.17,1.61.75,0,1.34-.24,1.82-.73l.84.97c-.6.72-1.54,1.09-2.7,1.09-2.25,0-3.7-1.44-3.7-3.44s1.47-3.43,3.47-3.43,3.39,1.37,3.39,3.47c0,.13-.01.31-.03.46Zm-5.27-1.04h3.81c-.13-.97-.87-1.63-1.9-1.63s-1.76.65-1.91,1.63Z" fill="#34110b" stroke-width="0"/><path d="m214.07,47.9l.57-1.27c.7.56,1.82.97,2.9.97,1.37,0,1.95-.49,1.95-1.14,0-1.9-5.22-.65-5.22-3.92,0-1.42,1.13-2.62,3.54-2.62,1.05,0,2.16.28,2.93.78l-.52,1.27c-.79-.46-1.66-.69-2.42-.69-1.36,0-1.91.53-1.91,1.19,0,1.87,5.21.65,5.21,3.88,0,1.41-1.14,2.61-3.55,2.61-1.37,0-2.74-.43-3.47-1.06Z" fill="#34110b" stroke-width="0"/><path d="m228.17,44.9v3.93h-1.48v-.82c-.38.58-1.1.9-2.11.9-1.53,0-2.5-.84-2.5-2.01s.75-2,2.79-2h1.73v-.1c0-.92-.55-1.46-1.67-1.46-.75,0-1.53.25-2.03.67l-.62-1.14c.72-.55,1.76-.83,2.84-.83,1.93,0,3.05.92,3.05,2.85Zm-1.57,1.83v-.78h-1.62c-1.07,0-1.36.4-1.36.89,0,.57.48.93,1.28.93s1.43-.35,1.7-1.04Z" fill="#34110b" stroke-width="0"/><path d="m230.18,39.51h1.57v9.32h-1.57v-9.32Z" fill="#34110b" stroke-width="0"/><path d="m240.09,45.98h-5.26c.19.98,1,1.61,2.17,1.61.75,0,1.34-.24,1.82-.73l.84.97c-.6.72-1.54,1.09-2.7,1.09-2.25,0-3.7-1.44-3.7-3.44s1.47-3.43,3.47-3.43,3.39,1.37,3.39,3.47c0,.13-.01.31-.03.46Zm-5.27-1.04h3.81c-.13-.97-.87-1.63-1.9-1.63s-1.76.65-1.91,1.63Z" fill="#34110b" stroke-width="0"/><path d="m240.86,48.17l.6-1.19c.59.39,1.5.67,2.34.67.99,0,1.41-.28,1.41-.74,0-1.28-4.14-.08-4.14-2.75,0-1.27,1.14-2.1,2.95-2.1.89,0,1.91.21,2.51.58l-.6,1.19c-.64-.38-1.28-.5-1.92-.5-.95,0-1.41.31-1.41.75,0,1.36,4.14.15,4.14,2.78,0,1.26-1.16,2.07-3.04,2.07-1.12,0-2.24-.33-2.84-.75Z" fill="#34110b" stroke-width="0"/><path d="m33.84,60.81v10.99h-2.04v-9.28h-2.32v-1.71h4.36Z" fill="#34110b" stroke-width="0"/><path d="m45.82,69.3h-1.95v2.5h-1.98v-2.5h-6.03v-1.41l5.42-7.08h2.18l-5.1,6.77h3.6v-2.21h1.92v2.21h1.95v1.73Z" fill="#34110b" stroke-width="0"/><path d="m46.68,66.3c0-3.61,1.98-5.65,4.58-5.65s4.6,2.04,4.6,5.65-1.98,5.65-4.6,5.65-4.58-2.04-4.58-5.65Zm7.13,0c0-2.65-1.04-3.88-2.54-3.88s-2.53,1.22-2.53,3.88,1.04,3.88,2.53,3.88,2.54-1.22,2.54-3.88Z" fill="#34110b" stroke-width="0"/><path d="m46.9,236.73c0,1.85-1.4,3.45-4.35,3.45-1.55,0-3.11-.47-4.13-1.27l.88-1.58c.79.66,1.98,1.08,3.22,1.08,1.46,0,2.32-.64,2.32-1.66s-.72-1.63-2.39-1.63h-1v-1.4l2.5-2.97h-4.99v-1.71h7.49v1.37l-2.67,3.17c2.07.27,3.12,1.51,3.12,3.16Z" fill="#34110b" stroke-width="0"/><path d="m56.07,236.65c0,1.93-1.4,3.53-4.35,3.53-1.55,0-3.12-.47-4.13-1.27l.86-1.58c.8.66,1.99,1.08,3.23,1.08,1.46,0,2.32-.64,2.32-1.68s-.67-1.71-2.95-1.71h-2.65l.57-5.98h6.45v1.71h-4.73l-.24,2.54h1.05c3.25,0,4.55,1.41,4.55,3.36Z" fill="#34110b" stroke-width="0"/><path d="m45.74,172.96v1.37l-4.27,9.62h-2.18l4.13-9.26h-4.32v1.87h-1.9v-3.6h8.54Z" fill="#34110b" stroke-width="0"/><path d="m46.68,178.46c0-3.61,1.98-5.65,4.58-5.65s4.6,2.04,4.6,5.65-1.98,5.65-4.6,5.65-4.58-2.04-4.58-5.65Zm7.13,0c0-2.65-1.04-3.88-2.54-3.88s-2.53,1.22-2.53,3.88,1.04,3.88,2.53,3.88,2.54-1.22,2.54-3.88Z" fill="#34110b" stroke-width="0"/><path d="m35.33,116.88v10.99h-2.04v-9.28h-2.32v-1.71h4.36Z" fill="#34110b" stroke-width="0"/><path d="m37.51,122.38c0-3.61,1.98-5.65,4.58-5.65s4.6,2.04,4.6,5.65-1.98,5.65-4.6,5.65-4.58-2.04-4.58-5.65Zm7.13,0c0-2.65-1.04-3.88-2.54-3.88s-2.53,1.22-2.53,3.88,1.04,3.88,2.53,3.88,2.54-1.22,2.54-3.88Z" fill="#34110b" stroke-width="0"/><path d="m56.07,124.5c0,1.93-1.4,3.53-4.35,3.53-1.55,0-3.12-.47-4.13-1.27l.86-1.58c.8.66,1.99,1.08,3.23,1.08,1.46,0,2.32-.64,2.32-1.68s-.67-1.71-2.95-1.71h-2.65l.57-5.98h6.45v1.71h-4.73l-.24,2.54h1.05c3.25,0,4.55,1.41,4.55,3.36Z" fill="#34110b" stroke-width="0"/><path d="m257.36,333.36v1.73h-8.1v-1.37l4.36-4.14c1.07-1.02,1.26-1.67,1.26-2.28,0-1-.69-1.59-2.04-1.59-1.07,0-1.96.36-2.58,1.15l-1.43-1.1c.85-1.15,2.37-1.82,4.18-1.82,2.39,0,3.93,1.21,3.93,3.16,0,1.07-.3,2.04-1.82,3.47l-2.94,2.79h5.18Z" fill="#34110b" stroke-width="0"/><path d="m258.49,329.6c0-3.61,1.98-5.65,4.58-5.65s4.6,2.04,4.6,5.65-1.98,5.65-4.6,5.65-4.58-2.04-4.58-5.65Zm7.13,0c0-2.65-1.04-3.88-2.54-3.88s-2.53,1.22-2.53,3.88,1.04,3.88,2.53,3.88,2.54-1.22,2.54-3.88Z" fill="#34110b" stroke-width="0"/><path d="m272.78,324.1v10.99h-2.04v-9.28h-2.32v-1.71h4.36Z" fill="#34110b" stroke-width="0"/><path d="m283.25,324.1v1.37l-4.27,9.62h-2.18l4.13-9.26h-4.32v1.87h-1.9v-3.6h8.54Z" fill="#34110b" stroke-width="0"/><path d="m346.42,333.36v1.73h-8.1v-1.37l4.36-4.14c1.07-1.02,1.26-1.67,1.26-2.28,0-1-.69-1.59-2.04-1.59-1.07,0-1.96.36-2.58,1.15l-1.43-1.1c.85-1.15,2.37-1.82,4.18-1.82,2.39,0,3.93,1.21,3.93,3.16,0,1.07-.3,2.04-1.82,3.47l-2.94,2.79h5.18Z" fill="#34110b" stroke-width="0"/><path d="m347.55,329.6c0-3.61,1.98-5.65,4.58-5.65s4.6,2.04,4.6,5.65-1.98,5.65-4.6,5.65-4.58-2.04-4.58-5.65Zm7.13,0c0-2.65-1.04-3.88-2.54-3.88s-2.53,1.22-2.53,3.88,1.04,3.88,2.53,3.88,2.54-1.22,2.54-3.88Z" fill="#34110b" stroke-width="0"/><path d="m361.84,324.1v10.99h-2.04v-9.28h-2.32v-1.71h4.36Z" fill="#34110b" stroke-width="0"/><path d="m372.94,331.94c0,2.04-1.77,3.31-4.51,3.31s-4.47-1.27-4.47-3.31c0-1.21.63-2.1,1.76-2.62-.88-.49-1.37-1.27-1.37-2.31,0-1.88,1.65-3.06,4.08-3.06s4.11,1.18,4.11,3.06c0,1.04-.5,1.82-1.4,2.31,1.15.52,1.79,1.41,1.79,2.62Zm-2.06-.06c0-1.08-.94-1.76-2.45-1.76s-2.42.68-2.42,1.76.91,1.77,2.42,1.77,2.45-.66,2.45-1.77Zm-4.52-4.77c0,.94.79,1.54,2.07,1.54s2.1-.6,2.1-1.54c0-.99-.85-1.55-2.1-1.55s-2.07.57-2.07,1.55Z" fill="#34110b" stroke-width="0"/><path d="m436.17,333.36v1.73h-8.1v-1.37l4.36-4.14c1.07-1.02,1.26-1.67,1.26-2.28,0-1-.69-1.59-2.04-1.59-1.07,0-1.96.36-2.58,1.15l-1.43-1.1c.85-1.15,2.37-1.82,4.18-1.82,2.39,0,3.93,1.21,3.93,3.16,0,1.07-.3,2.04-1.82,3.47l-2.94,2.79h5.18Z" fill="#34110b" stroke-width="0"/><path d="m437.3,329.6c0-3.61,1.98-5.65,4.58-5.65s4.6,2.04,4.6,5.65-1.98,5.65-4.6,5.65-4.58-2.04-4.58-5.65Zm7.13,0c0-2.65-1.04-3.88-2.54-3.88s-2.53,1.22-2.53,3.88,1.04,3.88,2.53,3.88,2.54-1.22,2.54-3.88Z" fill="#34110b" stroke-width="0"/><path d="m451.59,324.1v10.99h-2.04v-9.28h-2.32v-1.71h4.36Z" fill="#34110b" stroke-width="0"/><path d="m462.23,329.41c0,3.77-2.2,5.84-5.39,5.84-1.1,0-2.15-.24-2.89-.71l.75-1.54c.6.39,1.32.53,2.09.53,2.07,0,3.38-1.29,3.38-3.78v-.02c-.66.77-1.71,1.15-2.94,1.15-2.17,0-3.78-1.32-3.78-3.38,0-2.18,1.77-3.56,4.02-3.56,3,0,4.76,1.93,4.76,5.46Zm-2.37-2.01c0-1.04-.82-1.85-2.28-1.85-1.27,0-2.15.72-2.15,1.87s.86,1.87,2.2,1.87,2.23-.8,2.23-1.88Z" fill="#34110b" stroke-width="0"/><path d="m525.53,333.36v1.73h-8.1v-1.37l4.36-4.14c1.07-1.02,1.26-1.67,1.26-2.28,0-1-.69-1.59-2.04-1.59-1.07,0-1.96.36-2.58,1.15l-1.43-1.1c.85-1.15,2.37-1.82,4.18-1.82,2.39,0,3.93,1.21,3.93,3.16,0,1.07-.3,2.04-1.82,3.47l-2.94,2.79h5.18Z" fill="#34110b" stroke-width="0"/><path d="m526.66,329.6c0-3.61,1.98-5.65,4.58-5.65s4.6,2.04,4.6,5.65-1.98,5.65-4.6,5.65-4.58-2.04-4.58-5.65Zm7.13,0c0-2.65-1.04-3.88-2.54-3.88s-2.53,1.22-2.53,3.88,1.04,3.88,2.53,3.88,2.54-1.22,2.54-3.88Z" fill="#34110b" stroke-width="0"/><path d="m545.1,333.36v1.73h-8.1v-1.37l4.36-4.14c1.07-1.02,1.26-1.67,1.26-2.28,0-1-.69-1.59-2.04-1.59-1.07,0-1.96.36-2.58,1.15l-1.43-1.1c.85-1.15,2.37-1.82,4.18-1.82,2.39,0,3.93,1.21,3.93,3.16,0,1.07-.3,2.04-1.82,3.47l-2.94,2.79h5.18Z" fill="#34110b" stroke-width="0"/><path d="m546.23,329.6c0-3.61,1.98-5.65,4.58-5.65s4.6,2.04,4.6,5.65-1.98,5.65-4.6,5.65-4.58-2.04-4.58-5.65Zm7.13,0c0-2.65-1.04-3.88-2.54-3.88s-2.53,1.22-2.53,3.88,1.04,3.88,2.53,3.88,2.54-1.22,2.54-3.88Z" fill="#34110b" stroke-width="0"/><path d="m618.71,333.36v1.73h-8.1v-1.37l4.36-4.14c1.07-1.02,1.26-1.67,1.26-2.28,0-1-.69-1.59-2.04-1.59-1.07,0-1.96.36-2.58,1.15l-1.43-1.1c.85-1.15,2.37-1.82,4.18-1.82,2.39,0,3.93,1.21,3.93,3.16,0,1.07-.3,2.04-1.82,3.47l-2.94,2.79h5.18Z" fill="#34110b" stroke-width="0"/><path d="m619.84,329.6c0-3.61,1.98-5.65,4.58-5.65s4.6,2.04,4.6,5.65-1.98,5.65-4.6,5.65-4.58-2.04-4.58-5.65Zm7.13,0c0-2.65-1.04-3.88-2.54-3.88s-2.53,1.22-2.53,3.88,1.04,3.88,2.53,3.88,2.54-1.22,2.54-3.88Z" fill="#34110b" stroke-width="0"/><path d="m638.29,333.36v1.73h-8.1v-1.37l4.36-4.14c1.07-1.02,1.26-1.67,1.26-2.28,0-1-.69-1.59-2.04-1.59-1.07,0-1.96.36-2.58,1.15l-1.43-1.1c.85-1.15,2.37-1.82,4.18-1.82,2.39,0,3.93,1.21,3.93,3.16,0,1.07-.3,2.04-1.82,3.47l-2.94,2.79h5.18Z" fill="#34110b" stroke-width="0"/><path d="m643.26,324.1v10.99h-2.04v-9.28h-2.32v-1.71h4.36Z" fill="#34110b" stroke-width="0"/><path d="m707.36,333.36v1.73h-8.1v-1.37l4.36-4.14c1.07-1.02,1.26-1.67,1.26-2.28,0-1-.69-1.59-2.04-1.59-1.07,0-1.96.36-2.58,1.15l-1.43-1.1c.85-1.15,2.37-1.82,4.18-1.82,2.39,0,3.93,1.21,3.93,3.16,0,1.07-.3,2.04-1.82,3.47l-2.94,2.79h5.18Z" fill="#34110b" stroke-width="0"/><path d="m708.49,329.6c0-3.61,1.98-5.65,4.58-5.65s4.6,2.04,4.6,5.65-1.98,5.65-4.6,5.65-4.58-2.04-4.58-5.65Zm7.13,0c0-2.65-1.04-3.88-2.54-3.88s-2.53,1.22-2.53,3.88,1.04,3.88,2.53,3.88,2.54-1.22,2.54-3.88Z" fill="#34110b" stroke-width="0"/><path d="m726.94,333.36v1.73h-8.1v-1.37l4.36-4.14c1.07-1.02,1.26-1.67,1.26-2.28,0-1-.69-1.59-2.04-1.59-1.07,0-1.96.36-2.58,1.15l-1.43-1.1c.85-1.15,2.37-1.82,4.18-1.82,2.39,0,3.93,1.21,3.93,3.16,0,1.07-.3,2.04-1.82,3.47l-2.94,2.79h5.18Z" fill="#34110b" stroke-width="0"/><path d="m736.07,333.36v1.73h-8.1v-1.37l4.36-4.14c1.07-1.02,1.26-1.67,1.26-2.28,0-1-.69-1.59-2.04-1.59-1.07,0-1.96.36-2.58,1.15l-1.43-1.1c.85-1.15,2.37-1.82,4.18-1.82,2.39,0,3.93,1.21,3.93,3.16,0,1.07-.3,2.04-1.82,3.47l-2.94,2.79h5.18Z" fill="#34110b" stroke-width="0"/><rect x="118.86" width="22.25" height="22.25" fill="#dd2427" stroke-width="0"/><rect x="118.86" y="34.03" width="22.25" height="22.25" fill="#9fb2b8" stroke-width="0"/><rect x="118.86" y="68.06" width="11.13" height="22.25" fill="#80181a" stroke-width="0"/><rect x="129.99" y="68.06" width="11.13" height="22.25" fill="#728082" stroke-width="0"/><polygon points="809.44 291.09 87.21 291.09 87.21 10.21 88.21 10.21 88.21 290.09 809.44 290.09 809.44 291.09" fill="#47191c" stroke-width="0"/></g></svg>