<svg xmlns="http://www.w3.org/2000/svg" width="379.655" height="99.9" viewBox="0 0 379.655 99.9">
  <g id="Designer_Turkey" data-name="Designer Turkey" transform="translate(0.5 0.5)">
    <path id="Union_5" data-name="Union 5" d="M123.353,87.906V72.391h3.012V87.906c0,5.119,3.091,8.1,8.1,8.1s8.022-2.977,8.022-8.1V72.391H145.5V87.906c0,6.853-4.141,10.994-11.034,10.994C127.534,98.9,123.353,94.759,123.353,87.906Zm87.991,10.846-9.715-12.5-5.119,5.609v6.893H193.5V72.393h3.012V87.568l14.156-15.175h3.577l-10.43,11.448,11.224,14.911Zm53.261,0V89.825L254.4,72.392h3.122l8.551,13.746,8.431-13.746H277.6L267.582,89.715v9.037Zm-38.369,0V72.4h17.887v2.9H229.249v8.661h13.292v2.9H229.249v9.037h15.365v2.862Zm-49.244,0-5.46-8.4c-.564.04-1.165.075-1.769.075h-7v8.322H159.75V72.4h10.015c6.588,0,10.395,3.236,10.395,8.846,0,4.37-2.112,7.3-5.914,8.547l6.174,8.961ZM162.761,87.531h7c4.781,0,7.493-2.108,7.493-6.214,0-3.991-2.712-6.024-7.493-6.024h-7ZM101.006,98.749V75.293H92.419V72.4h20.22v2.9h-8.622V98.749Zm3.04-48.915V32.953h.944a54.663,54.663,0,0,0,3.175,6.178,26.319,26.319,0,0,0,3.648,4.829,15.224,15.224,0,0,0,4.251,3.144,11.312,11.312,0,0,0,5,1.112,11.2,11.2,0,0,0,4.357-.777,9.751,9.751,0,0,0,3.1-2,7.723,7.723,0,0,0,1.857-2.76,8.66,8.66,0,0,0,.609-3.175,8.854,8.854,0,0,0-.776-3.851,8.757,8.757,0,0,0-2.3-2.9,16,16,0,0,0-3.88-2.328q-2.362-1.044-5.469-2.13-2.567-.872-5.032-1.821a17.923,17.923,0,0,1-4.388-2.395A11.54,11.54,0,0,1,106,20.463a10.861,10.861,0,0,1-1.217-5.4A14.45,14.45,0,0,1,106,9.054a13.052,13.052,0,0,1,3.343-4.56,15.14,15.14,0,0,1,5.027-2.867A19.083,19.083,0,0,1,120.725.613a21.621,21.621,0,0,1,5.671.71,25.627,25.627,0,0,1,4.454,1.588l2.43-2.7h.811V15.263h-.944Q130.311,8.517,127.036,5.2a10.161,10.161,0,0,0-7.391-3.307,10.387,10.387,0,0,0-3.343.542,8.11,8.11,0,0,0-2.8,1.623,7.953,7.953,0,0,0-1.924,2.6,8.338,8.338,0,0,0-.71,3.546,7.9,7.9,0,0,0,.812,3.712,8.5,8.5,0,0,0,2.364,2.77,16.351,16.351,0,0,0,3.815,2.161q2.263.945,5.165,1.891,2.433.808,4.793,1.756a17,17,0,0,1,4.256,2.43,11.744,11.744,0,0,1,3.073,3.648,11.338,11.338,0,0,1,1.178,5.468,18.129,18.129,0,0,1-.878,5.531,13.961,13.961,0,0,1-2.8,5,14.267,14.267,0,0,1-4.961,3.612,17.832,17.832,0,0,1-7.431,1.39,21.982,21.982,0,0,1-6.006-.883,23.382,23.382,0,0,1-5.336-2.16l-4.049,3.307ZM189.9,48.18a23.082,23.082,0,0,1-7.832-4.693,22.621,22.621,0,0,1-5.438-7.7,26.063,26.063,0,0,1-2.024-10.6,24.26,24.26,0,0,1,2.059-10.094,25.011,25.011,0,0,1,5.469-7.832A24.644,24.644,0,0,1,199.18.406a27.35,27.35,0,0,1,6.924.776,26.4,26.4,0,0,1,5.3,1.993L214.443,0h.74V15.6h-.943a29.272,29.272,0,0,0-6.721-10.328,12.809,12.809,0,0,0-8.943-3.581,13.1,13.1,0,0,0-5.54,1.248,12.639,12.639,0,0,0-4.793,4.052,22.409,22.409,0,0,0-3.378,7.259,39.464,39.464,0,0,0-1.284,10.805,37.486,37.486,0,0,0,1.355,10.805,22.064,22.064,0,0,0,3.545,7.258,13.581,13.581,0,0,0,4.962,4.084,13.355,13.355,0,0,0,5.671,1.282q5.808,0,9.182-2.835V32.886a4.164,4.164,0,0,0-1.553-3.378q-1.555-1.277-5.94-1.415v-.878h20.458v.878q-3.176.133-4.22,1.146t-1.046,3.648V45.309a27.6,27.6,0,0,1-8,3.307,36.205,36.205,0,0,1-8.878,1.151A27.082,27.082,0,0,1,189.9,48.18Zm77.212,1.455L236.383,9.186h-.066V37.344a21.4,21.4,0,0,0,.371,4.286,7.206,7.206,0,0,0,1.349,3.039,6.808,6.808,0,0,0,2.668,1.993,15.876,15.876,0,0,0,4.255,1.081v.877h-18.5v-.877a15.454,15.454,0,0,0,3.951-1.152,6.728,6.728,0,0,0,2.531-1.959,7.531,7.531,0,0,0,1.355-3,19.749,19.749,0,0,0,.406-4.286V10.2a8.966,8.966,0,0,0-.477-2.937,6.39,6.39,0,0,0-1.486-2.434,7.493,7.493,0,0,0-2.563-1.685,11.609,11.609,0,0,0-3.717-.776V1.556h14.385l26.8,35.651h.071V12.762a16.869,16.869,0,0,0-.477-4.286,7.718,7.718,0,0,0-1.517-3.038,7.224,7.224,0,0,0-2.8-1.989,16.554,16.554,0,0,0-4.251-1.081V1.556h18.566v.811a15.018,15.018,0,0,0-3.913,1.147,6.244,6.244,0,0,0-2.434,1.958,7.467,7.467,0,0,0-1.213,3,23.5,23.5,0,0,0-.339,4.286V49.635Zm100.134-1.151a5.853,5.853,0,0,1-2.7-1.516,6.028,6.028,0,0,1-1.451-2.669,26.77,26.77,0,0,1-.71-3.916l-.674-6.214a19.313,19.313,0,0,0-.847-4.221,5.951,5.951,0,0,0-1.72-2.632,6.524,6.524,0,0,0-3.038-1.35,25.667,25.667,0,0,0-4.794-.37h-5.133V43.285a3.807,3.807,0,0,0,1.42,3.241q1.415,1.079,5.671,1.219v.877h-22.35v-.877a21.829,21.829,0,0,0,3.642-.371,6.042,6.042,0,0,0,2.231-.883,3.2,3.2,0,0,0,1.147-1.38,4.725,4.725,0,0,0,.339-1.826V6.823a3.8,3.8,0,0,0-1.486-3.176Q335.3,2.5,330.917,2.368V1.556h21.27a38.245,38.245,0,0,1,8.842.878,18.163,18.163,0,0,1,5.945,2.43,9.631,9.631,0,0,1,3.343,3.648,9.824,9.824,0,0,1,1.046,4.454,10.16,10.16,0,0,1-3.273,7.563q-3.281,3.176-11.043,4.322v.2a20.513,20.513,0,0,1,6.144,1.014,10.138,10.138,0,0,1,3.885,2.363,9.731,9.731,0,0,1,2.2,3.577,23.318,23.318,0,0,1,1.081,4.661l.471,3.845a20.611,20.611,0,0,0,.808,3.582,5.11,5.11,0,0,0,1.283,2.095,4.253,4.253,0,0,0,2.2.979,22.2,22.2,0,0,0,3.545.233v.811a27.16,27.16,0,0,1-3.51.573c-1.173.114-2.319.168-3.444.168A16.936,16.936,0,0,1,367.242,48.484ZM346.175,24.313h5.671a17.771,17.771,0,0,0,5.5-.71,7.446,7.446,0,0,0,3.343-2.095,7.437,7.437,0,0,0,1.653-3.444,23.073,23.073,0,0,0,.441-4.759,15.2,15.2,0,0,0-.577-4.357,7.62,7.62,0,0,0-1.923-3.273,9,9,0,0,0-3.612-2.094,18.59,18.59,0,0,0-5.706-.742h-4.794ZM282.027,48.621v-.877a21.062,21.062,0,0,0,3.651-.371A6.038,6.038,0,0,0,287.9,46.5a3.183,3.183,0,0,0,1.152-1.385,4.7,4.7,0,0,0,.335-1.821V6.823A3.776,3.776,0,0,0,287.9,3.651q-1.482-1.151-5.874-1.284V1.556h39.165l.2,15.193-.948.137q-1.483-3.58-2.867-6.244a17.937,17.937,0,0,0-3.1-4.393,11.23,11.23,0,0,0-3.886-2.562,14.251,14.251,0,0,0-5.2-.847h-8.1V23.571h3.642a14.084,14.084,0,0,0,3.713-.441,7.665,7.665,0,0,0,2.911-1.487,8.505,8.505,0,0,0,2.187-2.835,21.364,21.364,0,0,0,1.588-4.489h.881V34.1h-.881a20.578,20.578,0,0,0-1.588-4.453,8.983,8.983,0,0,0-2.187-2.835,7.486,7.486,0,0,0-2.911-1.522,14.286,14.286,0,0,0-3.713-.437H297.29V47.337h7.964a18.8,18.8,0,0,0,6.078-.877,12.2,12.2,0,0,0,4.493-2.7,19,19,0,0,0,3.48-4.627,61.517,61.517,0,0,0,3.1-6.65l.948.067-.339,16.07Zm-137.942,0v-.877a22.734,22.734,0,0,0,3.779-.371,6.429,6.429,0,0,0,2.329-.878,2.911,2.911,0,0,0,1.151-1.385,5.243,5.243,0,0,0,.3-1.821V6.823a5.286,5.286,0,0,0-.3-1.822,2.761,2.761,0,0,0-1.151-1.349,7.357,7.357,0,0,0-2.329-.878,20.146,20.146,0,0,0-3.779-.406V1.556H167.04v.811a20.147,20.147,0,0,0-3.78.406,7.356,7.356,0,0,0-2.329.878A2.761,2.761,0,0,0,159.78,5a5.288,5.288,0,0,0-.3,1.822V43.289a5.245,5.245,0,0,0,.3,1.821,2.911,2.911,0,0,0,1.151,1.385,6.428,6.428,0,0,0,2.329.878,22.734,22.734,0,0,0,3.78.371v.877Zm-90.41,0v-.877a20.955,20.955,0,0,0,3.647-.371,6,6,0,0,0,2.227-.878A3.181,3.181,0,0,0,60.7,45.11a4.685,4.685,0,0,0,.336-1.821V6.823a3.776,3.776,0,0,0-1.486-3.171Q58.068,2.5,53.675,2.368V1.556H92.841l.2,15.193-.949.137q-1.481-3.58-2.866-6.244A17.7,17.7,0,0,0,86.12,6.249a11.179,11.179,0,0,0-3.881-2.562,14.268,14.268,0,0,0-5.2-.847h-8.1V23.571h3.642A14.12,14.12,0,0,0,76.3,23.13a7.662,7.662,0,0,0,2.9-1.487,8.632,8.632,0,0,0,2.2-2.835,21.583,21.583,0,0,0,1.582-4.489h.878V34.1h-.878A20.784,20.784,0,0,0,81.4,29.649a9.125,9.125,0,0,0-2.2-2.835,7.482,7.482,0,0,0-2.9-1.522,14.323,14.323,0,0,0-3.718-.437H68.939V47.337H76.9a18.785,18.785,0,0,0,6.077-.877,12.191,12.191,0,0,0,4.494-2.7,19.1,19.1,0,0,0,3.475-4.627,59.776,59.776,0,0,0,3.1-6.65l.948.067-.339,16.07ZM0,48.621v-.877a20.948,20.948,0,0,0,3.643-.371A6.138,6.138,0,0,0,5.875,46.5,3.239,3.239,0,0,0,7.021,45.11a4.707,4.707,0,0,0,.34-1.826V6.823A3.788,3.788,0,0,0,5.875,3.651Q4.386,2.5,0,2.368V1.556H21.133a32.424,32.424,0,0,1,11.038,1.72A22.624,22.624,0,0,1,40.14,8.04a19.563,19.563,0,0,1,4.829,7.192,24.563,24.563,0,0,1,1.619,9.014,29.612,29.612,0,0,1-1.416,9.081,21.44,21.44,0,0,1-4.423,7.8,21.909,21.909,0,0,1-7.664,5.437,27.428,27.428,0,0,1-11.14,2.06Zm15.259-1.284h4.525a28.851,28.851,0,0,0,8.507-1.08,11.027,11.027,0,0,0,5.5-3.678,16.543,16.543,0,0,0,2.973-6.954,54.443,54.443,0,0,0,.908-10.84A43.773,43.773,0,0,0,36.564,13.98a16.392,16.392,0,0,0-3.312-6.751,11.255,11.255,0,0,0-5.5-3.445,28.481,28.481,0,0,0-7.767-.944H15.259Z" fill="#010249" stroke="rgba(0,0,0,0)" stroke-miterlimit="10" stroke-width="1"/>
  </g>
</svg>
