<svg id="Funding_Turkey" data-name="Funding Turkey" xmlns="http://www.w3.org/2000/svg" xmlns:xlink="http://www.w3.org/1999/xlink" width="422.886" height="192.297" viewBox="0 0 422.886 192.297">
  <defs>
    <clipPath id="clip-path">
      <rect id="Rectangle_73" data-name="Rectangle 73" width="422.886" height="192.297" fill="#010249"/>
    </clipPath>
  </defs>
  <path id="Path_614" data-name="Path 614" d="M0,382.645v44.18H10.35V409.784H21.932V401.2H10.35V390.976H33.071v-8.331Z" transform="translate(0 -248.475)" fill="#010249"/>
  <g id="Group_125" data-name="Group 125">
    <g id="Group_124" data-name="Group 124" clip-path="url(#clip-path)">
      <path id="Path_615" data-name="Path 615" d="M100.15,445.25a12.246,12.246,0,0,1-11.108,6.185c-8.457,0-12.055-5.112-12.055-12.307V419.184h9.972v17.23c0,4.671,1.767,6.879,5.554,6.879s6.564-2.777,6.627-8.078V419.184h9.909v31.368h-8.141Z" transform="translate(-49.993 -272.203)" fill="#010249"/>
      <path id="Path_616" data-name="Path 616" d="M188.5,417.664l.82,5.68a12.777,12.777,0,0,1,11.613-6.5c8.142,0,11.676,4.986,11.676,12.5v19.691H202.64V432.685c0-5.428-1.893-7.195-5.554-7.195-4.039,0-6.816,2.714-6.879,8.141v15.4h-9.972V417.664Z" transform="translate(-117.038 -270.683)" fill="#010249"/>
      <path id="Path_617" data-name="Path 617" d="M306.386,421.965c-2.083,3.724-5.743,5.743-10.729,5.743-8.078,0-13.254-5.554-13.254-16.22,0-11.108,5.491-16.852,13.822-16.852,4.1,0,7.2,1.515,9.215,4.292V382.645h9.972v44.18h-8.52Zm-7.826-19.944c-4.229,0-6.5,2.714-6.5,9.214,0,6.122,2.146,9.025,6.564,9.025,4.039,0,6.943-2.84,6.943-9.088,0-6.564-2.966-9.152-7.006-9.152" transform="translate(-183.382 -248.476)" fill="#010249"/>
      <path id="Path_618" data-name="Path 618" d="M392.156,378.145c3.661,0,5.743,1.578,5.743,5.175,0,3.471-2.083,5.112-5.743,5.112s-5.743-1.641-5.743-5.112c0-3.6,2.082-5.175,5.743-5.175m4.986,45.757H387.17V392.535h9.972Z" transform="translate(-250.922 -245.553)" fill="#010249"/>
      <path id="Path_619" data-name="Path 619" d="M436.342,417.664l.82,5.68a12.777,12.777,0,0,1,11.613-6.5c8.142,0,11.676,4.986,11.676,12.5v19.691h-9.972V432.685c0-5.428-1.893-7.195-5.554-7.195-4.039,0-6.816,2.714-6.88,8.141v15.4h-9.972V417.664Z" transform="translate(-277.976 -270.683)" fill="#010249"/>
      <path id="Path_620" data-name="Path 620" d="M562.583,447.77c0,10.414-7.384,15.21-17.609,15.21-6.185,0-11.8-1.83-14.327-6.88l5.617-4.859c1.893,3.345,4.8,4.607,8.331,4.607,4.986,0,8.079-2.461,8.079-7.952v-4.481c-1.957,3.471-5.175,5.238-9.846,5.238-7.889,0-13.127-5.238-13.127-15.778,0-10.666,5.364-16.031,13.7-16.031,4.67,0,8.268,1.767,10.288,5.365l.821-4.544h8.078Zm-16.788-23.6c-4.292,0-6.564,2.777-6.564,8.584,0,5.933,2.272,8.646,6.564,8.646,4.166,0,6.943-2.84,6.943-8.709,0-5.807-2.9-8.521-6.943-8.521" transform="translate(-343.968 -270.683)" fill="#010249"/>
      <path id="Path_621" data-name="Path 621" d="M864.969,417.656h8.268l.82,6.248a11.676,11.676,0,0,1,11.234-7.069l.063,9.467c-7.006-.568-10.351,3.535-10.414,10.288v12.434h-9.972Z" transform="translate(-561.679 -270.675)" fill="#010249"/>
      <path id="Path_622" data-name="Path 622" d="M932.937,382.644h9.909l-.253,27.139,11.613-14.327H965L953.071,409.4l12.055,17.419H954.143l-7.511-10.982-3.85,4.228v6.753h-9.846Z" transform="translate(-605.815 -248.475)" fill="#010249"/>
      <path id="Path_623" data-name="Path 623" d="M1020.269,433.569c0-10.54,5.806-16.725,16.031-16.725,10.477,0,14.769,6.942,14.769,15.841a22.257,22.257,0,0,1-.252,3.408h-21.08c.441,4.986,3.029,7.005,7.573,7.005,3.408,0,5.68-1.009,7.258-3.976l6,3.66c-2.588,4.86-7.511,7.132-14.011,7.132-9.972,0-16.284-5.238-16.284-16.346m9.467-3.219h12.181c-.252-4.418-2.209-6.564-5.807-6.564-3.66,0-6,2.083-6.374,6.564" transform="translate(-662.525 -270.683)" fill="#010249"/>
      <path id="Path_624" data-name="Path 624" d="M1118.884,450.679l-12.37-31.494H1116.8l7.321,20.89,7.068-20.89h10.225l-14.579,37.174c-2.461,6.185-7.069,8.079-12.938,8.079a17.422,17.422,0,0,1-6.753-1.2l1.01-7.132a11.208,11.208,0,0,0,4.544,1.01,5.255,5.255,0,0,0,5.365-3.976Z" transform="translate(-718.53 -272.203)" fill="#010249"/>
      <path id="Path_625" data-name="Path 625" d="M709.857,382.644v8.71H696.351v35.47H686v-35.47H672.494v-8.71Z" transform="translate(-436.693 -248.475)" fill="#010249"/>
      <path id="Path_626" data-name="Path 626" d="M784.884,445.25a12.246,12.246,0,0,1-11.108,6.185c-8.457,0-12.055-5.112-12.055-12.307V419.184h9.972v17.23c0,4.671,1.767,6.879,5.554,6.879s6.564-2.777,6.627-8.078V419.184h9.909v31.368h-8.142Z" transform="translate(-494.634 -272.203)" fill="#010249"/>
      <path id="Path_627" data-name="Path 627" d="M557.3,16.79V102.8H449.963V25.486ZM466.872,86.865h10.351V69.824H497.04V61.241H477.223V51.017h22.721V42.685H466.872Zm38.21-44.18V51.4h13.506v35.47h10.351V51.4h13.507v-8.71ZM449.963,8.693v8.232L557.3,8.232V0Z" transform="translate(-292.189)" fill="#010249"/>
    </g>
  </g>
</svg>
