<svg xmlns="http://www.w3.org/2000/svg" width="441.175" height="251" viewBox="0 0 441.175 251">
  <g id="PT_Group" data-name="PT Group" transform="translate(0.5 0.5)">
    <path id="Union_1" data-name="Union 1" d="M248.937,232.612V210.807h7.176v21.529c0,7.948,3.588,11.374,9.826,11.374s9.772-3.425,9.772-11.374V210.807h7.067v21.805c0,11.26-6.351,17.388-16.892,17.388C255.284,250,248.937,243.872,248.937,232.612Zm-49.228-2.487c0-11.427,8.834-19.874,20.813-19.874s20.814,8.391,20.814,19.874S232.5,250,220.522,250,199.709,241.552,199.709,230.125Zm7.233,0a13.581,13.581,0,1,0,13.581-13.58A13.172,13.172,0,0,0,206.942,230.125Zm-91.545.28c0-11.816,8.83-20.151,20.919-20.151,6.461,0,11.87,2.154,15.514,6.295l-4.526,4.413a14.337,14.337,0,0,0-10.655-4.413c-8.224,0-14.023,5.575-14.023,13.8,0,8.887,6.238,13.524,13.085,13.524,3.181,0,7.283-.992,9.712-3.035v-5.242h-9.712v-5.908h16.5v19.761h-5.908v-2.264c-2.76,1.878-6.482,2.817-11.257,2.817C124.561,250,115.4,243.043,115.4,230.4Zm176.764,19.043V210.8h15.9c10.158,0,16.452,5.193,16.452,13.747,0,8.5-6.295,13.747-16.452,13.747h-8.721v11.151Zm7.176-17.226h8.392c6.294,0,9.549-2.816,9.549-7.672s-3.256-7.672-9.549-7.672h-8.392ZM186.26,249.447l-7.9-11.317a13.245,13.245,0,0,1-1.487.056h-8.724v11.261h-7.177v-38.64h15.9c10.155,0,16.45,5.189,16.45,13.743a12.361,12.361,0,0,1-8.225,12.2l8.887,12.695Zm-18.107-17.169h8.391c6.295,0,9.55-2.869,9.55-7.729s-3.256-7.672-9.55-7.672h-8.391ZM71.486,133.973V91.007H90.323v42.966c0,10.052,6.56,16.19,15.447,16.19s14.923-6.138,14.923-16.19V91.007h18.73v42.966c0,19.576-12.911,31.956-33.756,31.956S71.486,153.549,71.486,133.973Zm226.168,31.113V91.007h57.99v14.817H316.491V120.53h35.346v14.817H316.491V150.27h40.319v14.816Zm89.092,0V141.7L359.338,91.005h18.837l17.884,32.279L413.52,91.005h18.837l-26.88,50.163v23.917Zm-364.63,0V106.14H0V90.9H63.282V106.14H40.954v58.944Zm248.027,0-19.581-29.1-9.839,10.9v18.2H221.886V91.007h18.838v32.064l28.361-32.064h21.8L263.368,121.7l29.314,43.387Zm-77.76,0-11.009-20.845H166.559v20.845H147.722V91.006h26.165V17.987h9.737v8.891c4.552-6.241,11.746-9.419,20-9.419,16.4,0,28.358,11.325,28.358,28.575S220.03,74.709,203.627,74.709c-7.937,0-14.919-3.067-19.577-9.1V91.1c17.594.978,27.6,10.145,27.6,25.73,0,11.32-4.764,19.471-13.443,23.81l15.558,24.444ZM166.566,129.42h14.285c8.147,0,12.911-4.236,12.911-11.958S189,105.82,180.851,105.82H166.566Zm17.381-83.387c0,11.958,8.04,19.789,18.833,19.789s18.943-7.938,18.943-19.789-8.147-19.687-18.943-19.687C192.094,26.346,183.947,34.071,183.947,46.033ZM378.319,90.057l4.338-7.618a14.34,14.34,0,0,0,10.052,4.126c4.868,0,7.935-2.224,10.687-8.678h.006l1.8-3.914L380.44,17.994h10.58L410.6,62.861l19.365-44.868h9.946l-27.2,61.692c-4.977,11.852-11.431,15.557-20,15.557C387.312,95.243,381.811,93.444,378.319,90.057ZM238.442,46.033c0-16.616,11.958-28.575,28.149-28.575v0c16.191,0,27.724,11.64,27.724,28.89,0,.846-.107,2.114-.21,3.067H248.6c1.272,9.844,9.206,16.4,20.318,16.4,6.559,0,12.064-2.22,16.191-6.772l5.606,6.563c-5.079,5.923-12.8,9.1-22.113,9.1C250.506,74.713,238.442,62.648,238.442,46.033ZM248.6,42.115h35.977a17.557,17.557,0,0,0-17.987-16.085C256.858,26.031,249.66,32.591,248.6,42.115ZM348.983,57.144V26.353h-9.525V17.994h9.525V5.717h10.159V17.99h16.084v8.359H359.142V56.723c0,6.028,3.177,9.415,8.784,9.415a12.816,12.816,0,0,0,7.935-2.643l3.177,7.3c-3.071,2.646-7.725,3.914-12.277,3.914C355.436,74.709,348.983,68.468,348.983,57.144ZM105.043,46.029c0-16.722,12.383-28.571,29.209-28.571s29.1,11.848,29.1,28.571-12.277,28.68-29.1,28.68S105.043,62.751,105.043,46.029Zm10.266,0c0,11.962,8.147,19.789,18.943,19.789s18.837-7.828,18.837-19.789-8.041-19.684-18.837-19.684S115.309,34.074,115.309,46.033ZM304.633,74.076V17.99h9.737v9.418c3.6-6.56,10.58-9.95,20.423-9.95V27.3a18.016,18.016,0,0,0-2.331-.106c-10.9,0-17.671,6.666-17.671,18.942V74.076Zm-232.739,0V17.99h9.737v9.418c3.6-6.56,10.581-9.95,20.423-9.95V27.3a18.017,18.017,0,0,0-2.331-.106c-10.9,0-17.671,6.666-17.671,18.942V74.076Zm-69.5,0V0H31.287c19.259,0,30.9,9.741,30.9,25.822s-11.643,25.821-30.9,25.821H12.979V74.076ZM12.981,42.434H30.972C44.514,42.434,51.6,36.4,51.6,25.818S44.517,9.206,30.972,9.206H12.981Zm336,14.709v0Z" transform="translate(0 0)" fill="#010249" stroke="rgba(0,0,0,0)" stroke-miterlimit="10" stroke-width="1"/>
  </g>
</svg>
